<svg xmlns="http://www.w3.org/2000/svg" width="192px" height="192px" viewBox="0 0 192 192">
	<style>
		.st0 {
			fill: #000;
		}
		@media ( prefers-color-scheme: dark ) {
			.st0 {
				fill: #fff;
			}
		}
	</style>
	<path class="st0" d="M71.8,121.2l1.5,0.6c8.3,3.2,17.2,4.5,26.1,4.1c8.2-0.4,16.3-2.4,23.7-5.9c2.6-1.2,5.1-2.6,7.5-4.2 c8.5-5.5,15.6-12.9,20.6-21.7c1.6-2.8,3.1-5.8,4.2-8.8c1.4-3.5,2.4-7.2,3.1-10.9c1.6-8.1,1.5-16.5-0.1-24.6l-0.1-0.6l-0.5-0.3 C140.1,35.3,118.4,28,96,28c-23.1,0-45.3,7.7-63.3,22.1c-3.5,2.8-6.8,5.8-9.9,9C12.8,69.5,5,81.9,0.2,95.5L0,96l0.2,0.5 c3.3,9.3,7.9,18,13.8,25.9l2.3,3.2l0.4-3.9c1-9.5,3.6-18.8,7.8-27.3c1.7-3.4,3.6-6.7,5.7-9.8c6.7-9.8,15.6-18.1,26-24 c3-1.7,6.1-3.3,9.3-4.6c19.4-8,41.7-8,61,0c3.2,1.3,6.3,2.9,9.3,4.6l1.9,1.1l-0.1,2.2c-0.1,3.5-0.7,6.9-1.7,10.3 c-3.2,10.8-10.6,19.9-20.5,25.1c-6,3.2-12.7,4.8-19.4,4.8c-10.3,0-19.7,6.2-23.7,15.8L71.8,121.2L71.8,121.2L71.8,121.2z  M71.7,70.8l0.6,1.4c8.3,20.8,39.1,20.8,47.4,0l0.6-1.4l-1.4-0.5c-14.6-5.6-31.1-5.6-45.7,0L71.7,70.8L71.7,70.8z M175.7,125.6 l2.3-3.2c5.8-7.9,10.5-16.7,13.8-25.9L192,96l-0.2-0.5c-3.3-9.3-7.9-18-13.8-25.9l-2.3-3.2l-0.4,3.9c-0.9,8.6-3.1,17.1-6.7,25.1 l-0.3,0.6l0.3,0.6c3.6,7.9,5.9,16.4,6.7,25.1L175.7,125.6L175.7,125.6L175.7,125.6z M71.3,96l-1.5-1.2C65,91,61.1,86.1,58.5,80.5 l-0.8-1.7L56.2,80C50,84.9,44.8,91,40.9,97.8c-1.6,2.8-3.1,5.8-4.2,8.8c-1.3,3.4-2.3,6.9-3,10.5c-1.6,8.2-1.6,16.8,0,25l0.1,0.6 l0.5,0.3c17.8,13.7,39.4,21,61.9,21s44.1-7.3,61.9-21l0.5-0.3l0.1-0.6c1.7-8.6,1.6-17.6-0.2-26.1l-0.6-2.9l-2,2.2 c-5.7,6.4-12.3,11.8-19.7,16.1c-3,1.7-6.1,3.3-9.3,4.6c-19.4,8-41.7,8-61,0c-3.2-1.3-6.3-2.9-9.3-4.6l-1.9-1.1l0.1-2.2 c0.1-3.5,0.7-6.9,1.7-10.3c2.4-8.1,7.2-15.4,13.9-20.7L71.3,96L71.3,96L71.3,96z"/>
</svg>
