<?xml version="1.0" encoding="utf-8"?>
<!-- Generator: Adobe Illustrator 21.0.1, SVG Export Plug-In . SVG Version: 6.00 Build 0)  -->
<svg version="1.1" id="Layer_1" xmlns="http://www.w3.org/2000/svg" xmlns:xlink="http://www.w3.org/1999/xlink" x="0px" y="0px"
	 viewBox="0 0 500 500" style="enable-background:new 0 0 500 500;" xml:space="preserve">
<style type="text/css">
	.st0{fill-rule:evenodd;clip-rule:evenodd;}
</style>
<path class="st0" d="M250.1,0L3.8,164.2v171.7L250.1,500l246-163.7V163.7L250.1,0z M271.3,64.5L437,175l-74,49.5l-91.8-61.3
	L271.3,64.5z M229,64.5v98.7l-91.7,61.3l-74-49.5L229,64.5z M46.4,214.5l53,35.5l-53,35.5V214.5z M229,435.5L63.3,325l74-49.5
	l91.7,61.3V435.5z M175.3,250l74.8-50l74.8,50l-74.8,50L175.3,250z M271.3,435.5l-0.1-98.7l91.8-61.3l74,49.5L271.3,435.5z
	 M453.9,285.5L401,250l53-35.5V285.5z"/>
</svg>
