<?xml version="1.0" encoding="utf-8"?>
<!-- Generator: Adobe Illustrator 21.0.1, SVG Export Plug-In . SVG Version: 6.00 Build 0)  -->
<svg version="1.1" id="Layer_1" xmlns="http://www.w3.org/2000/svg" xmlns:xlink="http://www.w3.org/1999/xlink" x="0px" y="0px"
	 viewBox="0 0 500 500" style="enable-background:new 0 0 500 500;" xml:space="preserve">
<path d="M285.7,35.7c0-19.7,16-35.7,35.7-35.7h141.9l0,0c5.8,0,10.5,1,14.6,2.7c3.2,1.7,8.1,4.3,11.6,7.7c0,0.1,0,0.1,0.1,0.2
	c6.9,6.9,9.4,16,10.4,25.1c0,0,0,0.1,0,0.1v142.9c0,19.8-16,35.7-35.7,35.7c-19.8,0-35.7-16-35.7-35.7V122l-189.1,189
	c-14,14-36.5,14-50.4,0c-14-14-14-36.5,0-50.4L378,71.4h-56.6C301.7,71.4,285.7,55.4,285.7,35.7L285.7,35.7z M0,107.1
	c0-39.5,32-71.4,71.4-71.4h107.1c19.8,0,35.7,16,35.7,35.7c0,19.8-16,35.7-35.7,35.7H71.4v321.4h321.4V321.4
	c0-19.8,16-35.7,35.7-35.7c19.8,0,35.7,16,35.7,35.7v107.1c0,39.4-32,71.4-71.4,71.4H71.4C32,500,0,468,0,428.6V107.1z"/>
</svg>
