<svg xmlns="http://www.w3.org/2000/svg" viewBox="0 0 500 500"><path d="M250,0C111.9,0,0,111.9,0,250c0,110.5,71.6,204.2,171,237.2c12.5,2.3,17.1-5.4,17.1-12.1c0-5.9-0.2-21.7-0.3-42.5c-69.5,15.1-84.2-33.5-84.2-33.5c-11.4-28.9-27.8-36.6-27.8-36.6c-22.7-15.5,1.7-15.2,1.7-15.2c25.1,1.8,38.3,25.8,38.3,25.8c22.3,38.2,58.5,27.2,72.8,20.8c2.3-16.1,8.7-27.2,15.9-33.4c-55.5-6.3-113.9-27.8-113.9-123.6c0-27.3,9.8-49.6,25.7-67.1c-2.6-6.3-11.2-31.7,2.5-66.2c0,0,21-6.7,68.7,25.6c19.9-5.5,41.3-8.3,62.6-8.4c21.2,0.1,42.6,2.9,62.6,8.4c47.7-32.3,68.7-25.6,68.7-25.6c13.6,34.4,5.1,59.8,2.5,66.2c16,17.5,25.7,39.8,25.7,67.1c0,96-58.5,117.2-114.1,123.4c9,7.7,17,23,17,46.3c0,33.4-0.3,60.4-0.3,68.6c0,6.7,4.5,14.5,17.2,12C428.4,454.1,500,360.4,500,250C500,111.9,388.1,0,250,0z"/></svg>