<svg xmlns="http://www.w3.org/2000/svg" xml:space="preserve" width="500px" height="500px" version="1.1" style="shape-rendering:geometricPrecision; text-rendering:geometricPrecision; image-rendering:optimizeQuality; fill-rule:evenodd; clip-rule:evenodd" viewBox="0 0 4233.32 4233.32" xmlns:xlink="http://www.w3.org/1999/xlink">
  <path style="fill: #fff" d="M1582.12 2673.09l32 12.2c182.87,69.78 380.29,100.03 575.68,90.03 180.57,-9.25 358.87,-52.73 522.62,-129.62 57.1,-26.81 112.37,-57.5 165.34,-91.75 186.83,-120.84 343.26,-285.06 454.56,-477.75 36.05,-62.42 67.32,-127.6 93.41,-194.8 30.13,-77.59 53.09,-157.92 68.8,-239.65 34.37,-178.85 34.05,-364.37 -1.51,-543.02l-2.44 -12.27 -9.93 -7.62c-391.84,-300.76 -870.12,-462.42 -1363.99,-462.42 -508.66,0 -998.32,170.59 -1396.2,487.61 -77.13,61.46 -150.22,127.98 -218.64,198.99 -220.66,228.99 -391.02,502.89 -497.84,802.47l-3.98 11.17 3.98 11.17c72.73,203.98 175.26,396.82 303.31,571.44l51.24 69.87 8.66 -86.21c20.99,-208.89 79.01,-413.73 172.02,-602.01 36.98,-74.85 79.31,-147.06 126.55,-215.9 148.64,-216.62 344.73,-398.26 572.19,-529.73 66.32,-38.33 135.15,-72.31 205.91,-101.64 427.02,-176.98 918.58,-176.98 1345.6,0 70.71,29.3 139.48,63.26 205.75,101.55l42.02 24.27 -1.75 48.49c-2.75,76.59 -14.97,152.75 -36.54,226.3 -69.76,237.79 -234.01,437.94 -453.01,553.73 -132.07,69.83 -278.97,106.11 -428.34,106.16 -227.95,0.07 -434.7,136.57 -522.32,347.31l-13.15 31.63zm-0.42 -1112.87l12.53 31.34c183.29,458.77 861.29,458.77 1044.58,0l12.52 -31.34 -31.53 -12.05c-321.54,-122.91 -685.03,-122.9 -1006.57,0l-31.53 12.05zm2293.08 1208.93l51.24 -69.86c128.06,-174.63 230.59,-367.47 303.32,-571.46l3.98 -11.17 -3.98 -11.17c-72.73,-203.98 -175.26,-396.82 -303.32,-571.45l-51.23 -69.87 -8.66 86.21c-19.16,190.67 -69.18,378.04 -148.54,552.51l-6.26 13.77 6.26 13.76c79.36,174.48 129.38,361.85 148.53,552.53l8.66 86.2zm-2303 -652.63l-32.1 -25.89c-105.68,-85.21 -191.63,-193.08 -250.9,-315.21l-18.22 -37.54 -32.52 26.14c-135.5,108.88 -250.23,242.43 -337.18,392.96 -36.05,62.41 -67.28,127.61 -93.33,194.82 -29.07,75.04 -51.47,152.63 -67.11,231.56 -35.94,181.38 -36.21,369.84 -0.12,551.23l2.44 12.27 9.92 7.61c392.38,301.2 869.45,462.43 1364,462.43 494.55,0 971.62,-161.23 1364,-462.42l9.92 -7.62 2.44 -12.27c37.74,-189.7 35.74,-387.15 -5.28,-576.14l-13.86 -63.88 -43.46 48.82c-125.04,140.44 -272.25,260.54 -435.05,354.64 -66.32,38.33 -135.15,72.31 -205.91,101.64 -427.02,176.98 -918.58,176.98 -1345.6,0 -70.76,-29.33 -139.59,-63.31 -205.91,-101.64l-41.99 -24.28 1.73 -48.47c2.74,-76.62 14.97,-152.79 36.55,-226.36 52.69,-179.62 159.77,-339.08 305.44,-456.52l32.1 -25.88z"/>
</svg>