<svg xmlns="http://www.w3.org/2000/svg" viewBox="0 0 348 100">
<polygon fill-rule="evenodd" clip-rule="evenodd" fill="#fff" points="44.2,0 88.4,25 88.4,75 44.2,100 0,75 0,25 44.2,0"/>
<path fill-rule="evenodd" clip-rule="evenodd" fill="#8ED6FB" d="M80.5,73.3L45.7,93V77.6l21.7-11.9L80.5,73.3L80.5,73.3z M82.9,71.1V29.9l-12.7,7.4v26.5L82.9,71.1L82.9,71.1z M7.8,73.3L42.6,93V77.6L20.9,65.7L7.8,73.3L7.8,73.3z M5.4,71.1V29.9l12.7,7.4v26.5L5.4,71.1L5.4,71.1z M6.9,27.2L42.6,7v14.8L19.7,34.5l-0.2,0.1L6.9,27.2L6.9,27.2z M81.4,27.2L45.7,7v14.8l22.9,12.6l0.2,0.1L81.4,27.2L81.4,27.2L81.4,27.2z"/>
<path fill-rule="evenodd" clip-rule="evenodd" fill="#1C78C0" d="M42.6,74.1L21.2,62.4V39l21.4,12.4V74.1L42.6,74.1z M45.7,74.1l21.4-11.8V39L45.7,51.4V74.1L45.7,74.1z M22.7,36.3l21.5-11.8l21.5,11.8L44.2,48.7L22.7,36.3L22.7,36.3z"/>
<path fill-rule="evenodd" clip-rule="evenodd" fill="#1A1C1C" d="M133,65.8h9.4l9.6-32h-9.2l-5.7,22.7l-6.1-22.7h-7.9L117,56.5l-5.6-22.7h-9.2l9.5,32h9.4l5.9-20.5L133,65.8L133,65.8L133,65.8z M152.5,49.9c0,9.6,6.5,16.7,16.8,16.7c8,0,12.2-4.8,13.5-7l-5.6-4.2c-0.9,1.3-3.4,3.9-7.8,3.9c-4.7,0-8.1-3.1-8.3-7.3l22.5,0c0.1-0.6,0.1-1.2,0.1-1.8c0-10.5-5.6-17.1-15.5-17.1C159.1,33,152.5,40.2,152.5,49.9L152.5,49.9L152.5,49.9z M161.4,46.4c0.4-3.7,2.9-6.5,6.9-6.5c3.9,0,6.7,2.6,6.9,6.5H161.4L161.4,46.4z M186.9,65.8h8v-3.3c0.9,1,4,4.1,9.5,4.1c9.2,0,15.7-6.9,15.7-16.8c0-9.9-6-16.8-15.2-16.8c-5.5,0-8.7,3.1-9.5,4.2V21.6h-8.4L186.9,65.8L186.9,65.8L186.9,65.8z M195.1,49.9c0-6,3.6-9.4,8.2-9.4c4.9,0,8.2,3.9,8.2,9.4c0,5.7-3.4,9.2-8.2,9.2C198.2,59.1,195.1,55,195.1,49.9L195.1,49.9z M223.3,77.3h8.4V62.5c0.8,1,4,4.1,9.5,4.1c9.2,0,15.2-6.9,15.2-16.8c0-9.8-6.5-16.8-15.7-16.8c-5.4,0-8.6,3.1-9.5,4.2v-3.4h-8L223.3,77.3L223.3,77.3L223.3,77.3z M231.5,49.7c0-5.1,3.1-9.2,8.2-9.2c4.8,0,8.2,3.6,8.2,9.2c0,5.6-3.3,9.4-8.2,9.4C235.1,59.1,231.5,55.7,231.5,49.7L231.5,49.7z M257.9,55.9c0,6.7,5.5,10.7,12,10.7c3.7,0,6.1-1.1,7.8-2.9l0.5,2.1h7.5V45.6c0-7.2-3.1-12.5-13.3-12.5c-4.9,0-9.7,1.8-12.6,3.8l3.2,5.8c2.4-1.2,5.3-2.3,8.5-2.3c3.7,0,5.8,1.9,5.8,4.7v2.1c-1.2-0.8-3.7-1.8-6.9-1.8C262.9,45.3,257.9,49.6,257.9,55.9L257.9,55.9L257.9,55.9z M266.4,55.6c0-2.6,2.3-4.5,5.5-4.5c3.2,0,5.6,1.7,5.6,4.5c0,2.7-2.3,4.4-5.5,4.4C268.8,60.1,266.4,58.3,266.4,55.6L266.4,55.6z M306.2,59.1c-5.3,0-9.1-3.9-9.1-9.3c0-5.1,3.4-9.4,8.8-9.4c3.6,0,6.1,1.8,7.5,3.1l2.4-7.1c-2.1-1.6-5.4-3.4-10.1-3.4c-9.7,0-17,7.2-17,16.9c0,9.7,7.1,16.7,17.1,16.7c4.6,0,8.1-2,10-3.4l-2.3-6.9C312,57.4,309.5,59.1,306.2,59.1L306.2,59.1L306.2,59.1z M318.9,65.8h8.4V49.3L338,65.8h9.9l-12.1-17.5l11.3-14.5h-9.5l-10.3,13.5V21.6h-8.4V65.8L318.9,65.8z"/>
</svg>
