<svg xmlns="http://www.w3.org/2000/svg" viewBox="0 0 485 100">
<path fill-rule="evenodd" clip-rule="evenodd" fill="#252A2F" d="M484.8,22v56.7h-10.4v-5.2c0,0-3.7,6.7-12.7,6.7c-9.7,0-16.4-4.5-17.2-21.6c0-17.9,11.2-22.4,18.7-22.4c6.7,0,11.2,5.2,11.2,5.2V22H484.8L484.8,22z M474.4,57.8c0-6-0.7-12.7-9.7-12.7c-9,0-9,10.4-9,13.4c0,3.7,0.7,11.9,9,11.9C472.9,70.5,474.4,63.8,474.4,57.8L474.4,57.8L474.4,57.8z M436.3,50.4V78h-11.2V51.1c0-3.7-2.2-6.7-6.7-6.7c-4.5,0-9,3.7-9,7.5V78h-11.2V36.2h11.2v6c0,0,3.7-7.5,14.9-6.7C437.1,36.9,436.3,48.9,436.3,50.4L436.3,50.4z M378.1,36.9h11.2v41.8h-11.2V36.9L378.1,36.9z M378.1,22h11.2v9.7h-11.2V22L378.1,22z M373.7,36.9l-11.9,41.8h-11.2l-7.5-27.6l-7.5,27.6h-10.4l-11.9-41.8h11.9l6,26.9l8.2-26.9h9.7l6.7,27.6l6-27.6H373.7L373.7,36.9z M296.8,21.3H308V78h-11.2V21.3L296.8,21.3z M276.6,36.9h11.2v41.8h-11.2V36.9L276.6,36.9z M276.6,22h11.2v9.7h-11.2V22L276.6,22z M267.7,51.9V78h-10.4v-5.2c0,0-3,3.7-7.5,5.2c-6.7,2.2-16.4,0.7-19.4-6.7c-2.2-6,0-12.7,6-15.7c7.5-3.7,20.1-3,20.1-3s0.7-3-0.7-5.2c-0.7-2.2-3-3-6-3c-7.5,0-7.5,5.2-7.5,5.2l-10.4-0.7c0,0,0-5.2,5.2-9c3-2.2,6.7-3,13.4-3C258.7,36.9,267.7,39.9,267.7,51.9L267.7,51.9L267.7,51.9z M250.5,70.5c7.5-1.5,6.7-10.4,6.7-10.4h-3c-2.2,0-5.2,0-7.5,0.7c-3.7,0.7-5.2,2.2-6,3.7c-0.7,2.2,0,4.5,2.2,6C244.6,71.3,246.8,71.3,250.5,70.5L250.5,70.5L250.5,70.5z M234.9,21.3v11.2h-17.2v46.3H205v-47h-16.4V21.3H234.9L234.9,21.3z"/>
<path fill-rule="evenodd" clip-rule="evenodd" fill="#15B8C5" d="M167.3,17.2c0,0-10.4,15.7-28.4,12.7C121,26.9,118.1,0,86,0c-39.6,0-44,33.6-44,33.6s11.2-16.4,28.4-13.4c17.2,3,23.9,29.9,59,29.9C164.3,50,167.3,17.2,167.3,17.2L167.3,17.2L167.3,17.2z M125.5,67.2c0,0-10.4,15.7-28.4,12.7c-17.9-3-20.9-29.9-53-29.9c-39.6,0-44,33.6-44,33.6s11.2-16.4,28.4-13.4c16.4,3,23.9,29.9,59,29.9C122.5,100,125.5,67.2,125.5,67.2L125.5,67.2L125.5,67.2z"/>
</svg>