<svg xmlns="http://www.w3.org/2000/svg" viewBox="0 0 500 500">
<path fill-rule="evenodd" clip-rule="evenodd" d="M314.7,472.2c0.5,1.9,0.9,3.9,1.2,5.9c1.3,7.6-2.1,15.1-8.6,19.1c-8.6,5.2-19.7,2.9-25.4-5.6c-7.3-11-18.4-18.9-32-19.3c-21.8-0.7-44.8-6.9-58-23.6l-10.8-0.9c-7.2-0.6-16.1-0.6-22.1,4.1c-5,3.8-9.2,10.9-13.8,15.5c-8.4,8.7-18.3,12.5-30.3,12.7c-19.6,0.3-33.7-13.7-36.7-32.5c-1.7-10.5,5.5-20.1,16-21.5c6.9-1,13.7,2,17.7,7.6c1.9-1.3,4.1-4.2,5.2-5.8c3.7-5.1,6.9-10.5,10.8-15.5c12.4-16.2,27.7-24.3,48.3-23.1l-3.7-11.4c-10-30.5-4.9-63,12.3-89.9l5.6-8.8c-4.4-11-7.4-22.5-7.5-34.5c-0.1-10.3,1.5-20.5,4.8-30.2l5.2-15.5c-0.1-0.2-0.1-0.3-0.2-0.5c-9.2,12.4-27.4,16.6-42.2,6.1c-8-5.7-12.4-13.8-13.4-22.5c-14.5,1.8-29.2,6.2-41.1,13.9c-5.8,3.8-13.1,4.1-19.2,0.7c-11-6.2-13.2-21.3-3.8-30.1c11.1-10.4,24.2-18.7,38.2-24.7c-6.8-18.8-1.2-40.3,19.6-49.7c8.6-3.9,17.3-4.4,25-2.3c-4.7-15.6-3.7-33.2,4.6-50.1C168.2,24.3,181.7,11.3,198,5c18.1-7,38.4-7.5,55,3.5c7.1,4.7,12.9,11.3,16.6,18.8c3.5-0.8,7.2-1.2,10.8-1.1c30.2,0.8,43.6,27.9,38.9,53.4c13.4,2.9,26.2,7.9,38.1,14.7c6,3.4,9.6,9.7,9.4,16.6c0,1.6-0.3,3.2-0.7,4.7c12.6-5.4,28.1-4.4,41.5,5.4c27.2,19.9,22.1,53.5,1,73.7c7.4,6.9,14.2,14.5,20.3,22.5c4.2,5.5,5.1,12.7,2.4,19.1c-5.2,11.9-20.5,15.7-30.4,6.9c-9.9-8.8-20.9-16.4-32.6-22.6c-3.5,13.8-13.5,25.3-29.3,29.2c-29.6,7.4-54-18.7-45.1-47c-10,0.4-20,2-29.3,5l0.1,2.8l8.5,5.1c23.6,14.2,33.9,46.4,34.1,72.6c0.1,24.1-8,45.5-20,65l1.3,18.1c0.5,6.3,0.4,12.5-0.2,18.5l4.5,1.3c13.5,3.9,22.9,11.5,31.7,22.1c3.3,4,9.3,12.8,13.6,15.3c1.1,0.6,2.1,0.9,3.3,1c3.4,0.2,5,0,6.2-3.2l0.1-0.3l0.2-0.3c8.8-18.8,37.3-11.3,35.6,9.5l0,0.2l0,0.2C379.7,471.5,342.9,484.7,314.7,472.2L314.7,472.2z M349.1,129.3c-2.7,0.2-5.5-0.3-8.3-1.4l-0.2-0.1c-0.4-0.2-0.8-0.3-1.2-0.5c-2.4,8.4-8.1,15.8-17,20.1c-2.8,1.4-5.6,2.3-8.4,2.8c9.4,1.2,18.7,3.2,27.7,5.9c0-0.5-0.1-1-0.1-1.4C341.5,144.8,344.3,136.2,349.1,129.3L349.1,129.3z M297.5,148.9c-10.3-3.8-18.3-13-20-24.6c-16.7,5.1-32,15.6-36.4,33C258.9,150.9,278.2,148.3,297.5,148.9L297.5,148.9z M247.3,85.5c-0.3-0.4-0.5-0.8-0.8-1.2c-3.1,1.3-6.3,2.3-9.5,3.1c-6.7,1.7-13.6-0.3-18.2-5.4c-8.9-9.7-5.6-25.4,7-30.3c1.2-0.4,4.7-2.4,4.6-4c-0.9-1.3-5.4-1.8-6.7-1.9c-11.7-0.5-21.5,11-22.7,21.9c-0.7,5.8,0.3,11.5,4.4,15.9c9.1,9.6,26.8,8.5,37.8,3.5C244.6,86.7,245.9,86.1,247.3,85.5L247.3,85.5z"/>
<path fill-rule="evenodd" clip-rule="evenodd" fill="#f00" d="M176.2,403.2c-42.7-2.9-42.1,45-66.1,45c-4.1,0-7.1-2.9-9.2-6.2c-2.9-4.4-9.9-1.8-9.1,3.5c1.9,12.1,10.2,21.1,22.9,20.9c32.5-0.5,20.7-36.3,67.6-32.3C177.7,424.9,175.8,413.5,176.2,403.2L176.2,403.2L176.2,403.2z M274.8,372.5c-12.2,15.8-23.7,28.4-34.6,37.6c2.9,5.4,7.9,9.4,15.3,12C270.2,413,276.6,396.5,274.8,372.5L274.8,372.5L274.8,372.5z M417.9,225.6c-9.2-12.1-19.9-22.9-32-31.9c25.1-11.3,37.7-43.9,13.5-61.5c-19.4-14.2-44.3-1.8-44.1,22.4c0.1,6.3,9.2,7.4,10.7,1.3c2.4-9.1,11-16.5,20.1-10.3c17.4,11.9-3.2,39.5-34.2,28.8c-33.5-13.8-74.4-16.3-108.5-3.2c2.6,8.3,7.7,16.8,13.7,24.7c18.7-6.9,39.9-8.2,59.6-5.8c21.1,3.4,28.2,26.9,12.6,30.2c-8.2,1.7-11.9-5.8-10.9-13c0.8-6.2-7.9-8.6-10.4-2.8c-8.2,19.6,8.1,36.9,27.7,32c17.7-4.4,23.2-21.9,18.6-37.2c20.4,7.6,39.3,19.2,55.6,33.7C414.8,237.2,421.8,230.8,417.9,225.6L417.9,225.6L417.9,225.6z M243.7,293.8c-0.1,12.3-6,22.6-14.4,32.2c-7.2-15.2-15.9-29.5-23-44.7c-5.3-11.5-9.5-23.8-9.6-36.7c-0.1-8.9,1.3-17.5,4.1-25.6c7.4,12.5,15.7,21.4,24.5,32.4C238.7,268.3,243.9,282,243.7,293.8L243.7,293.8L243.7,293.8z"/>
<path fill-rule="evenodd" clip-rule="evenodd" fill="#093" d="M161.1,143.6c-19.4,0.3-29.7-19.7-16.1-25.3c7.1-2.9,11.7,3.4,12,10c0.3,5.7,8.6,6.4,9.8,0.8c4.1-19-13.4-32-30.3-24.3c-18.7,8.5-17.5,30.9-5,44.4c-18.1,5.5-35.2,14.6-49,27.5c-4.4,4.1,1,11.1,6,7.8c18.6-12,42.8-17.3,65.3-17.1c-5,8.5-4.6,19.4,4.6,26c11.5,8.2,26.7,0.9,26.3-13.9c-0.2-5.7-8.4-6.7-9.8-1.1c-0.8,3.4-3.7,6.7-7.3,4.4c-7.1-4.7,1.6-14,11.7-12.7c2.1,0.4,4.3,1,6.4,1.5c-0.2-8.9,1-18.1,4-27.6C180.1,142.9,170.9,142.9,161.1,143.6L161.1,143.6L161.1,143.6z M306.4,449c-8.8-9.4-19.6-16.5-31.6-21c7.8-7.5,12.6-15.4,14.3-23.5c28.3,8.1,30.2,37.8,51.6,38.9c9.8,0.6,16.4-3.3,19.8-11.8c2.3-5,9.9-3,9.4,2.5C366.3,466.9,325.1,471.7,306.4,449L306.4,449L306.4,449z M266.1,227.6c0.4,9.5-3.9,32.5-10.4,40.3c5,10.4,5.4,22.2,2.7,33.3c-5.4,21.6-21.6,40.3-37.1,55.5c-14.6,14-28.5,23.6-30.1,46c-0.2,2.5-0.4,6,0.9,9.6c26.1-3.2,36.4-10.6,49.7-24.4c26.1-27.2,51.9-59.7,51.7-99.3C293.4,267.4,285.4,239.2,266.1,227.6L266.1,227.6L266.1,227.6z"/>
<path fill-rule="evenodd" clip-rule="evenodd" fill="#fc0" d="M297.8,106.8c-66.9,3.8-96.1,63.4-46.7,107.2c0.4,11-1.3,25.3-7.6,34.3c-34.9-33.1-59.4-79.2-27.7-123c-37.5-5.7-60.6-43.6-43-79.3c6.2-12.5,17.1-23.1,30.2-28.1c35.3-13.7,59,9.3,57.1,30.3c4.6-5.2,11.7-8.4,20-8.2c26.1,0.7,32.8,30.3,20.5,50.9c17.5,1.2,34.7,6.6,49.9,15.4c5.3,3,1.3,11.2-4.4,8.9c-6.7-2.9-13.8-5.1-21-6.5c3.9,9.7,1.9,21.2-8.8,26.4c-13.2,6.4-27.8-3.9-24.9-19c1.1-5.7,9.3-5.2,9.8,0.5c0.3,3.9,3.2,8.2,7.5,6.3C317.1,119.1,309.4,106.8,297.8,106.8L297.8,106.8L297.8,106.8z M266.4,93.7c27.1-7.4,28.8-37.2,10.8-37.1c-9.2,0-12.3,9.2-9.5,17.1c1.9,5.4-5.5,9.2-8.7,4.5c-3.6-5.2-5.1-10.6-4.9-15.8c-4.3,5.1-11,9.3-20.4,11.7c-6,1.5-8.7-7.2-3-9.5c19.2-7.3,18.6-31.4-6.4-32.5c-19-0.8-34.9,16-37,34.2c-3.8,34.1,33.1,46.4,61.6,33.5C254.6,97.3,260.5,95.4,266.4,93.7L266.4,93.7z M195.9,426c6.5,26.9,36.4,32,54.5,32.6c13.5,0.4,30.6,6.7,43,25.4c2.9,4.4,9.9,1.7,9-3.6c-5.1-29.8-21.4-36.5-38.3-41.3c-14.6-4.2-30-6.4-36.4-21.8C215.4,422.2,201.4,425.4,195.9,426L195.9,426L195.9,426z M196.4,295.5c7.1,14.1,15.8,27.8,21.7,42.4c-11.4,11.1-24,22.2-32.5,35.8C176.9,347,181.4,318.9,196.4,295.5L196.4,295.5L196.4,295.5z"/>
</svg>