<svg xmlns="http://www.w3.org/2000/svg" viewBox="0 0 442.96 100">
<path fill="#fff" d="M272.75,16.05h-13a1.71,1.71,0,0,0-1.59,1.28L248.94,60a1.7,1.7,0,0,1-1.59,1.28h-9.19c-9.1,0-8.06-6.29-6.18-14.91,2.09-9.61,3.85-19.38,5.83-29a1,1,0,0,0-1-1.29H223.42a1.69,1.69,0,0,0-1.58,1.28q-3,14.25-6,28.49c-3.3,15.08-2.43,29.46,15.52,29.91,9.43.26,19.22,0,28.69,0a1.7,1.7,0,0,0,1.58-1.29l12.15-57.12a1,1,0,0,0-1-1.28ZM133.6,15.9H119.34a1.73,1.73,0,0,0-1.6,1.28L115,29.12a1,1,0,0,0,1,1.28h14.38A1.71,1.71,0,0,0,132,29.12l2.61-11.94a1,1,0,0,0-1-1.28Zm-4.14,18.58H115.09a1.73,1.73,0,0,0-1.6,1.28c-2.92,12.92-5.73,25.77-8.48,38.72-.8,3.73-3.68,10.51-7.89,10.43l-4.47-.08A1.7,1.7,0,0,0,91,86.08L88,98.61a1,1,0,0,0,1,1.29c2.56,0,8.3.1,11.77.1,11.28,0,17.23-6.25,21-24.24l8.65-40a1,1,0,0,0-1-1.28Zm215.39-17Q339,45.34,333,73.17c-.43,2-.18,2.57,2.08,2.57h10.84c2.08,0,2.7-.4,3.15-2.57,2.77-13.7,5.6-27.28,8.51-41a1.7,1.7,0,0,1,1.58-1.28l34.09,0a1,1,0,0,0,1-1.28s-1.36-5.74-1.49-6.26c-1.17-4.54-4.6-7.16-12-7.16l-34.27,0a1.7,1.7,0,0,0-1.59,1.28ZM442.24,7.35c-5.89,0-11.76,0-17.65,0a2.79,2.79,0,0,0-2.05,1.08L398.41,43.83c-.41.6-.87.51-1-.19l-1.78-7.79a1.73,1.73,0,0,0-1.6-1.28H378.48a.94.94,0,0,0-1,1.26l7,24.35a5.75,5.75,0,0,1,0,2.53l-3,11.79a1,1,0,0,0,1,1.27H397.8a1.78,1.78,0,0,0,1.64-1.27l3-11.79a7.83,7.83,0,0,1,1.11-2.32l39.18-52c.43-.58.2-1-.52-1ZM314.88,37.88a1.57,1.57,0,0,1-1.54,1.34H293.68c-1,0-1-.81-.82-1.47,1.88-5,5.7-8.27,12.9-8.27,8.1,0,9.67,4,9.13,8.4Zm-5.77-22.7c-25.25,0-31.23,15.32-34.58,30.79-3.36,15.76-3.07,30.5,23.06,30.5q12,0,23.95-.12a1.7,1.7,0,0,0,1.56-1.29l2.53-12.34a1,1,0,0,0-1-1.28H301.09C291.74,61.44,289,59,290,51.66h37.54a1.55,1.55,0,0,0,1.39-1c7.53-18.95,2.41-35.51-19.82-35.51ZM189.79,37.8s-4.25,15.07-6,21.35a1.84,1.84,0,0,1-1.67,1.26h-15c-11.38,0-14.15-8.9-11.38-22,2.77-13.43,8.2-21.78,19.41-22.62,15.31-1.15,18.37,9.61,14.67,22ZM178.61,0C153.08,0,142,18.39,137.75,38.38s1.31,37.8,26.71,37.65l38.76-.14a1.81,1.81,0,0,0,1.64-1.27l3.26-12.44a1,1,0,0,0-1-1.28l-6.25,0c-1.2,0-.89-1-.81-1.22,0,0,7.07-17.18,8.68-27.1C210.95,19.26,204.3,0,178.61,0Z"/>
<path fill="#0a69ad" d="M40.65,73.6C30.94,71.4,21,64.31,14.92,56,7.17,45.44,4.36,30.83,10.57,18.83l-5.5,7C-2,35.95-1.08,49.12,4.28,59.9,9.32,70,21.93,81.43,33.72,83.58c34.1,6.23,44-20.49,44-20.49C69.41,73.93,54.65,76.77,40.65,73.6Zm6.59-14.52c26.33,4.37,32.41-15.91,32.41-15.91-5.48,7.89-16.1,11.68-27.42,8.72C41.68,49.13,32.52,41,29.26,30.47a23.83,23.83,0,0,1,1.86-19.08L27,17.27c-5.1,7.34-4.82,17.16-.85,24.92,3.84,7.48,12.83,15.51,21.13,16.89ZM58,37.47c14.54,2.78,18.48-7.46,19.53-9-3.45,5-9.26,6.17-16.38,4.44a21,21,0,0,1-7.36-3.57C47.41,24.53,43.46,15.3,47.62,7.79l-2.25,3.1a15.36,15.36,0,0,0-1.22,14.8c2.2,5.17,8.11,10.68,13.85,11.77Z"/>
</svg>