<svg xmlns="http://www.w3.org/2000/svg" viewBox="0 0 431 97.53"><path fill="#1b1f23" fill-rule="evenodd" d="M50,0A50,50,0,0,0,34.19,97.44c2.5.44,3.44-1.06,3.44-2.38s-.06-5.12-.06-9.31C25,88.06,21.75,82.69,20.75,79.88c-.56-1.44-3-5.88-5.12-7.06-1.75-.94-4.25-3.25-.06-3.31,3.94-.06,6.75,3.63,7.69,5.13,4.5,7.56,11.69,5.44,14.56,4.12A10.51,10.51,0,0,1,41,72.06C29.87,70.81,18.25,66.5,18.25,47.38a19.46,19.46,0,0,1,5.12-13.44c-.5-1.25-2.25-6.38.5-13.25,0,0,4.19-1.31,13.75,5.13a47.13,47.13,0,0,1,25,0c9.56-6.5,13.75-5.13,13.75-5.13,2.75,6.88,1,12,.5,13.25A19.34,19.34,0,0,1,82,47.38c0,19.19-11.69,23.44-22.81,24.69,1.81,1.56,3.38,4.56,3.38,9.25,0,6.69-.06,12.06-.06,13.75,0,1.31.94,2.87,3.44,2.38A50,50,0,0,0,50,0ZM178.2,43.17H151.89a1.23,1.23,0,0,0-1.23,1.23V57.27a1.23,1.23,0,0,0,1.23,1.23h10.26v16s-2.3.79-8.68.79c-7.52,0-18-2.75-18-25.84s10.93-26.14,21.2-26.14c8.89,0,12.72,1.56,15.15,2.32a1.24,1.24,0,0,0,1.47-1.21L176.21,12a1.15,1.15,0,0,0-.47-1c-1-.71-7-4.08-22.27-4.08-17.57,0-35.58,7.47-35.58,43.4s20.63,41.28,38,41.28c14.39,0,23.12-6.15,23.12-6.15a1.06,1.06,0,0,0,.4-.93V44.4a1.23,1.23,0,0,0-1.23-1.23Zm135.6-31.94A1.23,1.23,0,0,0,312.57,10H297.76a1.23,1.23,0,0,0-1.23,1.24V39.87H273.44V11.24A1.23,1.23,0,0,0,272.22,10H257.41a1.23,1.23,0,0,0-1.22,1.24V88.76A1.23,1.23,0,0,0,257.41,90h14.81a1.23,1.23,0,0,0,1.22-1.24V55.6h23.09l0,33.16A1.23,1.23,0,0,0,297.72,90h14.85a1.23,1.23,0,0,0,1.22-1.24V11.24ZM206.15,21.41a9.55,9.55,0,1,0-9.55,9.65,9.59,9.59,0,0,0,9.55-9.65Zm-1.06,15.21a1.23,1.23,0,0,0-1.22-1.23H189.1a1.41,1.41,0,0,0-1.28,1.38V88c0,1.51.94,2,2.15,2h13.31c1.46,0,1.82-.72,1.82-2V36.62Zm165-1.12H355.4a1.23,1.23,0,0,0-1.22,1.24v38a16.61,16.61,0,0,1-9,2.73c-5.3,0-6.71-2.41-6.71-7.6V36.74a1.23,1.23,0,0,0-1.22-1.24H322.29a1.23,1.23,0,0,0-1.22,1.24V72.4c0,15.42,8.59,19.19,20.41,19.19A34.45,34.45,0,0,0,359,86.23a31,31,0,0,0,.54,3.16,1.29,1.29,0,0,0,1.08.67l9.49,0a1.24,1.24,0,0,0,1.22-1.24v-52a1.23,1.23,0,0,0-1.23-1.24ZM395.92,75V50.42a19.59,19.59,0,0,1,7.6-2.47c5.29-.47,10.39,1.13,10.39,13.76,0,13.32-2.3,15.94-9.44,15.73A18.11,18.11,0,0,1,395.92,75Zm14.36-41.21a27.65,27.65,0,0,0-14,3.73V11.24A1.23,1.23,0,0,0,395,10H380.17a1.23,1.23,0,0,0-1.22,1.24V88.76A1.23,1.23,0,0,0,380.17,90h10.31a1.23,1.23,0,0,0,1.07-.66,24.13,24.13,0,0,0,.63-3.57s6.07,5.76,17.57,5.76c13.5,0,21.24-6.85,21.24-30.74s-12.37-27-20.72-27Zm-162.6,1.62H236.56l0-14.68c0-.56-.29-.83-.93-.83H220.47c-.59,0-.9.26-.9.82V35.86s-7.59,1.83-8.1,2a1.23,1.23,0,0,0-.89,1.18v9.53a1.23,1.23,0,0,0,1.23,1.24h7.76V72.73c0,17,11.95,18.71,20,18.71A33.83,33.83,0,0,0,248.4,90a1.15,1.15,0,0,0,.7-1.11V78.39a1.25,1.25,0,0,0-1.23-1.24c-.65,0-2.3.26-4,.26-5.46,0-7.31-2.54-7.31-5.82V49.8h11.11a1.23,1.23,0,0,0,1.22-1.24V36.62a1.23,1.23,0,0,0-1.22-1.24Z"/></svg>