<svg xmlns="http://www.w3.org/2000/svg" viewBox="0 0 344.29 100"><path fill="#7351a1" d="M29.37,67.24a1.71,1.71,0,0,1,.12,1.8A6.91,6.91,0,0,0,29,73.55a7.51,7.51,0,0,0,8.46,5.88,7.6,7.6,0,0,0,6.41-7.69,7.4,7.4,0,0,0-7.36-7.18,1.91,1.91,0,0,1-2.15-1.27,10.05,10.05,0,0,0-.53-1,50,50,0,0,1-5.4-30,36.23,36.23,0,0,1,4.64-14c2-3.35,4.28-6.36,7.74-8.32a27,27,0,0,1,8.93-3.19,16.61,16.61,0,0,1,4.75-.23,16.88,16.88,0,0,1,11.13,6.17,34.05,34.05,0,0,1,7.21,15.47c.19.9,0,2,.56,2.68s1.72.59,2.61.87l3.73,1.16a3.21,3.21,0,0,0,.07-1.76,54.11,54.11,0,0,0-1.34-7.3c-1.79-6.64-4.8-12.59-10-17.21C61.16.18,52.81-1.68,43.56,1.57,35.2,4.51,29.43,10.42,25.84,18.37a49.46,49.46,0,0,0-3.37,30.44,60.74,60.74,0,0,0,6.91,18.43ZM72.8,71.32a2.62,2.62,0,0,1,1.81-1.51,7.46,7.46,0,0,0,5.16-9.26,7.54,7.54,0,0,0-9.42-5.11,7.45,7.45,0,0,0-3.92,11.47,1.77,1.77,0,0,1,.11,2.33c-.85,1.34-1.6,2.75-2.54,4A51,51,0,0,1,37.64,91.93a31.82,31.82,0,0,1-16.91.68C9.87,90.19,4.91,79.34,6.5,70.77a24.73,24.73,0,0,1,4.15-9.57,33.21,33.21,0,0,1,6.26-6.79c.4-.33.81-.6.63-1.26-.56-2-1.07-4-1.62-6a1.62,1.62,0,0,0-1,.49,41,41,0,0,0-6.29,5.79C2.3,60.71-.72,69.09.7,78.8c.82,5.63,3.08,10.58,7.5,14.35a28.87,28.87,0,0,0,16,6.51,36.57,36.57,0,0,0,12.12-.81C52.65,95.22,64.92,86.17,72.8,71.32Zm32.83,2.85a32.09,32.09,0,0,0-6.57-18.05A50.39,50.39,0,0,0,78.65,39.87,57.77,57.77,0,0,0,53.8,35a2.16,2.16,0,0,1-2.08-1,7,7,0,0,0-6.45-3,7,7,0,0,0-6.46,4.63,7.12,7.12,0,0,0,1.36,7.85,7.43,7.43,0,0,0,11.91-1.06,2,2,0,0,1,1.76-1.07,42,42,0,0,1,8.95.51,50.39,50.39,0,0,1,20.5,7.93A36.67,36.67,0,0,1,98,67.61,19,19,0,0,1,81.72,93.75a30.51,30.51,0,0,1-13.9-2,2.74,2.74,0,0,0-3.43.55c-1.33,1.29-2.88,2.35-4.35,3.53a4.48,4.48,0,0,0,1.43.77,41.46,41.46,0,0,0,11.45,3.13,32,32,0,0,0,20.53-4.06c8.15-4.82,12.59-11.84,12.18-21.51Z"/><path fill="#30302f" d="M297.88,79.5V59.71q0-9.54,0-19.09c0-1.32,0-1.33-1.26-1.33H286.52c-1.15,0-1.16,0-1.16,1.12,0,2.81,0,5.61,0,8.42q0,9.54,0,19.09c0,.49.18,1-.3,1.45-2.24,1.9-4.71,3.25-7.77,3a4.85,4.85,0,0,1-4.54-3.94,11.07,11.07,0,0,1-.29-2.92q0-12.42,0-24.84c0-1.45.11-1.35-1.38-1.35H260.41c-.32,0-.53.14-.54.49s0,.56,0,.84q0,12.56,0,25.12a21.26,21.26,0,0,0,.57,5.14c1.39,5.6,4.63,9.49,10.46,10.63a16,16,0,0,0,13.27-3c.69-.53,1.36-1.09,2.08-1.67a13.38,13.38,0,0,1,.82,2.31,2.67,2.67,0,0,0,2.48,2c2.57.06,5.14,0,7.72,0,.5,0,.64-.25.62-.69s0-.65,0-1Zm46.08.33c-4.15-6.56-8.28-13.13-12.47-19.66a1.77,1.77,0,0,1,0-2.33c4-5.68,7.85-11.4,11.76-17.1.28-.41.53-.84.92-1.45h-1.41c-3.09,0-6.18.08-9.26,0a3.83,3.83,0,0,0-3.83,2.24c-1.76,3.19-3.6,6.34-5.43,9.49a9.71,9.71,0,0,1-1.11,2c-2.38-4-4.76-7.81-7-11.72a3.55,3.55,0,0,0-3.42-2c-3.7,0-7.39,0-11.09,0-.24,0-.57-.16-.73.29.26.4.53.83.81,1.25,3.91,5.87,7.81,11.76,11.77,17.61a1.69,1.69,0,0,1,0,2.21C309.28,67,305.15,73.43,301,79.82a3.26,3.26,0,0,0-.67,1.22,2.38,2.38,0,0,0,1.23.13c3.09,0,6.18-.05,9.26,0a3.76,3.76,0,0,0,3.36-1.63,14.28,14.28,0,0,0,.93-1.4c2.23-3.87,4.62-7.65,6.73-11.6.4.16.49.56.67.87,2.22,3.79,4.45,7.58,6.63,11.39a4.19,4.19,0,0,0,4.08,2.38c3.36-.1,6.74,0,10.1,0a2.32,2.32,0,0,0,1.31-.16c-.23-.4-.44-.8-.68-1.18ZM155.79,40.92a12,12,0,0,1-.35,2.77A7.66,7.66,0,0,1,151,49a10.72,10.72,0,0,1-4.2,1c-2,.05-3.93,0-5.89.05-.75,0-1-.27-.92-1a1.13,1.13,0,0,0,0-.14c0-5.09,0-10.19,0-15.28,0-1,0-1,1-1a50.15,50.15,0,0,1,7.42.22c.46.08.92.16,1.37.27a7.38,7.38,0,0,1,6,7.84ZM162,60.7a11.42,11.42,0,0,0-3.3-3.4c-.34-.24-.77-.36-1-.8l1-.48c6.9-3.34,10.48-8.79,10.47-16.5,0-7.06-3.4-12.13-9.9-14.87a28.84,28.84,0,0,0-10.93-2.22c-6.78-.09-13.57-.06-20.35-.07-1.84,0-1.62-.22-1.62,1.66q0,26.67,0,53.34c0,.94,0,1.87,0,2.81s0,1,1,1h11.51c1.12,0,1.13,0,1.13-1.15q0-6.81,0-13.62c0-2,0-4,0-6,0-.63.12-1,.84-.92,1.12.05,2.25,0,3.37,0a3.44,3.44,0,0,1,2.76,1.44,12.78,12.78,0,0,1,.9,1.42c3,5.27,6.07,10.53,9,15.83a5.43,5.43,0,0,0,5.14,3c3.79,0,7.58,0,11.37,0,.29,0,.65.16.86-.2a1.31,1.31,0,0,0-.08-.28q-6.11-10-12.22-20Zm78.21,8.38a9.19,9.19,0,0,1-7.09,3.11,5.4,5.4,0,0,1-5.24-3.3,14.33,14.33,0,0,1-1.28-5,27,27,0,0,1,.66-10.15,11.65,11.65,0,0,1,.88-2.21,7.79,7.79,0,0,1,12.34-1.46,1.87,1.87,0,0,1,.44,1.41q0,4,0,8c0,2.57,0,5.14,0,7.72a2.52,2.52,0,0,1-.73,1.87Zm13.25,10.2V34q0-6.1,0-12.21c0-1,0-1-1-1h-7.58c-1.08,0-2.15,0-3.23,0-.54,0-.77.18-.75.72,0,.33,0,.66,0,1q0,8.84,0,17.68c0,.48.18,1-.17,1.45a.8.8,0,0,1-.19,0,4,4,0,0,1-.35-.22c-5.28-3.79-10.84-3.67-16.44-1-4.24,2.06-6.89,5.66-8.53,10a31,31,0,0,0-.93,17.81,20.18,20.18,0,0,0,4,8.7,12.53,12.53,0,0,0,7,4.56,15.81,15.81,0,0,0,13.39-2.86c1-.72,1.85-1.57,2.93-2.51.31,1,.56,1.92.85,2.8a2.89,2.89,0,0,0,3.09,2.32c2.29,0,4.59,0,6.88,0,.69,0,1.07-.14,1-.92a7.15,7.15,0,0,1,0-1ZM199,55.21H184.88c-.23,0-.47,0-.65-.16.29-3.78,2.54-6.7,5.82-7.48a9.14,9.14,0,0,1,4.3,0c3.69.91,5.08,3.89,5.24,7.06,0,.4-.16.61-.58.59ZM198,39.4a21.67,21.67,0,0,0-8.21-.64c-7.56.77-13.29,4.41-16.44,11.41s-2.67,14,.53,20.76a17.92,17.92,0,0,0,11.49,9.82,26.78,26.78,0,0,0,18.38-1.05A18.36,18.36,0,0,0,210,75.33a.87.87,0,0,0,0-1.41,35.94,35.94,0,0,1-2.65-3.27c-1.34-2-3.16-1.87-4.8-1.09-.93.44-1.83.94-2.75,1.4a13.08,13.08,0,0,1-7.19,1.45,8.57,8.57,0,0,1-7.14-4.3A13.07,13.07,0,0,1,184,62.7a3.85,3.85,0,0,1,1.63-.14h21.2c.47,0,.94,0,1.4,0,1.73-.13,2.31-.68,2.54-2.39a20.7,20.7,0,0,0-.35-7.25C208.89,46,204.87,41.37,198,39.4Z"/></svg>