<svg xmlns="http://www.w3.org/2000/svg" viewBox="0 0 445 100">
<path fill-rule="evenodd" clip-rule="evenodd" fill="#8612FE" d="M13.8,13.1C13.5,6.3,18.8,0,25.9,0h73c7.1,0,12.4,6.3,12.2,13.1c-0.2,6.5,0.1,15,2.2,21.9c2.1,6.9,5.7,11.3,11.6,11.9v6.4c-5.9,0.6-9.5,4.9-11.6,11.9c-2.1,6.9-2.4,15.4-2.2,21.9c0.2,6.8-5,13.1-12.2,13.1h-73c-7.1,0-12.4-6.3-12.2-13.1c0.2-6.5-0.1-15-2.2-21.9C9.5,58.1,5.9,53.7,0,53.2v-6.4c5.9-0.6,9.5-4.9,11.6-11.9C13.7,28.1,14,19.6,13.8,13.1L13.8,13.1z"/>
<path fill-rule="evenodd" clip-rule="evenodd" fill="#fff" d="M51.8,69.8V52.3h11.1c8,0,12.1,2.9,12.1,8.7c0,5.7-4,8.8-11.6,8.8H51.8L51.8,69.8z M51.8,30.1H63c6.1,0,9.5,2.7,9.5,7.7c0,5.3-4,8.2-11.3,8.2h-9.4V30.1L51.8,30.1z M65.1,76.6c11.5,0,18.5-5.7,18.5-15c0-7.1-5-12.2-12.3-13v-0.3c5.4-0.9,9.7-5.9,9.7-11.6c0-8-6.3-13.3-15.9-13.3H43.4v53.2H65.1L65.1,76.6z"/>
<path d="M184,55c0,2.5-0.6,4.6-1.9,6.4c-1.3,1.8-3,3.2-5.2,4.1c-2.2,1-4.6,1.4-7.2,1.4h-22.2V20.5h24c2.2,0,4.1,0.6,5.7,1.7c1.6,1.2,2.8,2.6,3.7,4.5c0.8,1.8,1.3,3.7,1.3,5.7c0,2.3-0.6,4.4-1.7,6.4c-1.2,2-2.8,3.5-4.9,4.4c2.7,0.8,4.8,2.2,6.3,4.3C183.2,49.5,184,52,184,55L184,55z M176.4,53.6c0-1.3-0.3-2.5-0.8-3.6c-0.5-1.1-1.3-1.9-2.2-2.6c-0.9-0.7-2-1-3.3-1h-15.3v14.2h14.9c1.3,0,2.5-0.3,3.5-0.9s1.8-1.5,2.4-2.6C176.1,56.1,176.4,54.9,176.4,53.6L176.4,53.6z M154.8,26.8v13.7h13.5c1.2,0,2.3-0.3,3.3-0.9c1-0.6,1.7-1.4,2.3-2.4c0.6-1,0.9-2.2,0.9-3.5c0-1.4-0.3-2.5-0.8-3.6c-0.5-1-1.2-1.8-2.1-2.4c-0.9-0.6-1.9-0.9-3.1-0.9H154.8L154.8,26.8z M206.1,67.7c-2.7,0-5.1-0.5-7.3-1.4c-2.1-0.9-4-2.2-5.5-3.9c-1.5-1.6-2.7-3.5-3.6-5.6c-0.8-2.1-1.2-4.3-1.2-6.7c0-2.4,0.4-4.6,1.2-6.7c0.8-2.1,2-4,3.6-5.6c1.5-1.6,3.4-2.9,5.6-3.8c2.2-0.9,4.6-1.4,7.2-1.4c2.7,0,5.1,0.5,7.2,1.4c2.2,0.9,4,2.2,5.6,3.8c1.5,1.6,2.7,3.5,3.6,5.6c0.8,2.1,1.2,4.4,1.2,6.7c0,2.4-0.4,4.6-1.2,6.7c-0.8,2.1-2,4-3.6,5.6c-1.5,1.6-3.4,2.9-5.6,3.9C211.1,67.2,208.7,67.7,206.1,67.7L206.1,67.7z M195.9,50.1c0,2.2,0.5,4.1,1.4,5.8c0.9,1.7,2.1,3.1,3.7,4.1c1.5,1,3.3,1.5,5.2,1.5c1.9,0,3.6-0.5,5.1-1.5c1.5-1,2.8-2.4,3.7-4.1c0.9-1.7,1.4-3.7,1.4-5.8c0-2.2-0.5-4.1-1.4-5.8c-0.9-1.7-2.1-3.1-3.7-4.1c-1.5-1-3.3-1.5-5.1-1.5c-1.9,0-3.6,0.5-5.2,1.6c-1.5,1-2.7,2.4-3.7,4.1C196.3,46,195.9,47.9,195.9,50.1L195.9,50.1z M245.5,67.7c-2.7,0-5.1-0.5-7.3-1.4c-2.1-0.9-4-2.2-5.5-3.9c-1.5-1.6-2.7-3.5-3.6-5.6c-0.8-2.1-1.2-4.3-1.2-6.7c0-2.4,0.4-4.6,1.2-6.7c0.8-2.1,2-4,3.6-5.6c1.5-1.6,3.4-2.9,5.6-3.8c2.2-0.9,4.6-1.4,7.2-1.4c2.7,0,5.1,0.5,7.2,1.4c2.2,0.9,4,2.2,5.6,3.8c1.5,1.6,2.7,3.5,3.6,5.6c0.8,2.1,1.2,4.4,1.2,6.7c0,2.4-0.4,4.6-1.2,6.7c-0.8,2.1-2,4-3.6,5.6c-1.5,1.6-3.4,2.9-5.6,3.9C250.5,67.2,248.1,67.7,245.5,67.7L245.5,67.7z M235.3,50.1c0,2.2,0.5,4.1,1.4,5.8c0.9,1.7,2.1,3.1,3.7,4.1c1.5,1,3.3,1.5,5.2,1.5c1.9,0,3.6-0.5,5.1-1.5c1.5-1,2.8-2.4,3.7-4.1c0.9-1.7,1.4-3.7,1.4-5.8c0-2.2-0.5-4.1-1.4-5.8c-0.9-1.7-2.1-3.1-3.7-4.1c-1.5-1-3.3-1.5-5.1-1.5c-1.9,0-3.6,0.5-5.2,1.6c-1.5,1-2.7,2.4-3.7,4.1C235.7,46,235.3,47.9,235.3,50.1L235.3,50.1z M288,65.4c-0.6,0.3-1.4,0.6-2.3,1c-0.9,0.3-2,0.7-3.1,0.9c-1.2,0.3-2.3,0.4-3.6,0.4c-1.5,0-2.9-0.3-4.1-0.8c-1.3-0.5-2.3-1.4-3-2.5c-0.8-1.1-1.1-2.6-1.1-4.5V38.6h-4.5V33h4.5V21.7h7.2V33h7.5v5.6h-7.5v19c0.1,1.2,0.5,2,1.1,2.6c0.7,0.6,1.5,0.9,2.5,0.9c1,0,2-0.2,2.9-0.5c0.9-0.4,1.6-0.6,2-0.9L288,65.4L288,65.4z M305.2,67.7c-2.9,0-5.6-0.5-8.2-1.4c-2.6-0.9-4.8-2.3-6.6-4.2l2.7-4.8c2,1.7,3.9,3,5.9,3.8c2,0.8,4,1.2,5.9,1.2c2,0,3.6-0.4,4.9-1.1c1.3-0.7,1.9-1.8,1.9-3.3c0-1.1-0.3-1.9-1-2.4c-0.7-0.5-1.6-1-2.8-1.4c-1.2-0.4-2.7-0.8-4.5-1.3c-2.4-0.7-4.5-1.5-6.2-2.3c-1.7-0.8-2.9-1.8-3.7-3c-0.8-1.2-1.2-2.7-1.2-4.5c0-2.2,0.6-4.1,1.7-5.6c1.1-1.6,2.7-2.8,4.7-3.6c2-0.8,4.4-1.2,7-1.2c2.5,0,4.8,0.4,6.9,1.1c2.1,0.8,4,2,5.6,3.6l-3.1,4.8c-1.5-1.4-3.1-2.4-4.7-3.1c-1.6-0.7-3.3-1-5.1-1c-1,0-2.1,0.1-3,0.4c-1,0.2-1.8,0.7-2.4,1.3c-0.6,0.6-0.9,1.5-0.9,2.6c0,0.9,0.3,1.6,0.8,2.2c0.5,0.6,1.3,1,2.4,1.4c1,0.4,2.3,0.8,3.9,1.3c2.7,0.8,4.9,1.5,6.8,2.3c1.9,0.8,3.3,1.7,4.4,2.9c1,1.2,1.5,2.8,1.5,4.9c0,3.3-1.2,5.9-3.7,7.7C312.5,66.7,309.3,67.7,305.2,67.7L305.2,67.7z M344.1,65.4c-0.6,0.3-1.4,0.6-2.3,1c-0.9,0.3-2,0.7-3.1,0.9c-1.2,0.3-2.3,0.4-3.6,0.4c-1.5,0-2.9-0.3-4.1-0.8c-1.3-0.5-2.3-1.4-3-2.5c-0.8-1.1-1.1-2.6-1.1-4.5V38.6h-4.5V33h4.5V21.7h7.2V33h7.5v5.6H334v19c0.1,1.2,0.5,2,1.1,2.6c0.7,0.6,1.5,0.9,2.5,0.9c1,0,2-0.2,2.9-0.5c0.9-0.4,1.6-0.6,2-0.9L344.1,65.4L344.1,65.4z M368.3,39c-2.8,0-5.3,0.7-7.4,1.9c-2.2,1.2-3.7,2.9-4.6,5.2v21h-7.2V33h6.7v7.4c1.2-2.4,2.7-4.2,4.6-5.7c1.9-1.4,3.9-2.2,6.1-2.3c0.4,0,0.8,0,1.1,0c0.3,0,0.5,0,0.8,0.1V39L368.3,39z M371,57.1c0-2.2,0.6-4.1,1.9-5.7c1.2-1.6,3-2.9,5.1-3.8c2.2-0.9,4.7-1.3,7.6-1.3c1.5,0,3.1,0.1,4.7,0.3c1.6,0.2,3,0.6,4.2,1v-2.2c0-2.4-0.7-4.2-2.2-5.5c-1.4-1.3-3.5-2-6.2-2c-1.9,0-3.7,0.3-5.4,1c-1.7,0.7-3.5,1.6-5.4,2.9l-2.4-4.8c2.3-1.5,4.5-2.7,6.8-3.4c2.3-0.7,4.7-1.1,7.2-1.1c4.6,0,8.2,1.2,10.8,3.6c2.6,2.4,4,5.8,4,10.2v12.6c0,0.8,0.1,1.4,0.4,1.8c0.3,0.3,0.8,0.5,1.5,0.6V67c-0.7,0.1-1.2,0.2-1.8,0.3c-0.5,0-1,0.1-1.3,0.1c-1.5,0-2.7-0.4-3.5-1.1c-0.8-0.7-1.2-1.6-1.4-2.6l-0.2-2c-1.5,1.9-3.4,3.4-5.7,4.5c-2.3,1-4.6,1.6-7,1.6c-2.3,0-4.3-0.5-6.1-1.4c-1.8-0.9-3.2-2.2-4.2-3.8C371.5,60.9,371,59.1,371,57.1L371,57.1z M392.8,59.1c0.5-0.6,0.9-1.1,1.2-1.7c0.3-0.6,0.5-1.1,0.5-1.5v-3.9c-1.2-0.5-2.5-0.8-3.9-1.1c-1.4-0.2-2.7-0.3-4-0.3c-2.6,0-4.7,0.5-6.4,1.6c-1.6,1-2.5,2.4-2.5,4.2c0,1,0.3,1.9,0.8,2.8c0.5,0.9,1.3,1.6,2.4,2.2c1,0.6,2.3,0.8,3.8,0.8c1.6,0,3.1-0.3,4.5-0.9C390.8,60.8,391.9,60.1,392.8,59.1L392.8,59.1z M429.8,67.7c-2.7,0-5.2-0.6-7.3-1.9c-2.1-1.3-3.8-3-5-5.1V81h-7.2V33h6.3v6.2c1.3-2,3-3.7,5.1-4.9c2.1-1.2,4.4-1.8,7-1.8c2.4,0,4.5,0.5,6.5,1.4c2,0.9,3.7,2.2,5.1,3.9c1.4,1.6,2.6,3.5,3.4,5.6c0.8,2.1,1.2,4.3,1.2,6.6c0,3.2-0.6,6.2-1.9,8.9c-1.3,2.7-3.1,4.8-5.4,6.4C435.4,66.9,432.8,67.7,429.8,67.7L429.8,67.7z M427.5,61.5c1.5,0,2.9-0.3,4.2-1c1.2-0.6,2.3-1.5,3.2-2.6c0.9-1.1,1.6-2.3,2.1-3.7c0.5-1.4,0.7-2.8,0.7-4.3c0-1.6-0.3-3-0.8-4.4c-0.5-1.4-1.3-2.6-2.3-3.6c-1-1-2.1-1.9-3.4-2.5c-1.3-0.6-2.7-0.9-4.2-0.9c-0.9,0-1.9,0.2-2.9,0.5c-1,0.4-1.9,0.8-2.8,1.4c-0.9,0.6-1.6,1.3-2.3,2.1c-0.7,0.8-1.1,1.7-1.4,2.6v8.9c0.6,1.4,1.4,2.6,2.4,3.7c1,1.1,2.2,2,3.5,2.6C424.8,61.2,426.1,61.5,427.5,61.5L427.5,61.5z"/>
</svg>