<svg xmlns="http://www.w3.org/2000/svg" viewBox="0 0 239.42 100">
<path fill="#413000" fill-rule="evenodd" d="M174.78,74.33V66.79l4.87-.67c1.34-.19,1.53-.48,1.53-1.91V36.16c0-1-.28-1.72-1.24-2l-5.15-1.81,1-7.73h19.75v39.6c0,1.53.09,1.72,1.53,1.91l4.87.67v7.53h-27.2Zm64.93-3.7a38.16,38.16,0,0,1-15.56,3.81c-11.35,0-15.65-4.58-15.65-15.36v-25c0-.57,0-1-.77-1h-6.68V24.64c8.4-1,11.74-5.16,12.79-15.56h9.07V22.63c0,.67,0,1,.76,1h13.45v9.54H222.91v22.8c0,5.63,1.34,7.82,6.49,7.82a22.72,22.72,0,0,0,7.73-1.52l2.58,8.4ZM143.77,34c-5.25,0-9.16,2.58-9.16,8.78,0,4.67,2.58,7.92,8.88,7.92,5.34,0,9-3.15,9-8.11,0-5.63-3.24-8.59-8.68-8.59Zm95.94,36.59ZM187.09,17c-5.44,0-8.59-3.15-8.59-8.59S181.65,0,187.09,0s8.68,3,8.68,8.39S192.63,17,187.09,17ZM174.78,74.33Zm-41.51,3.51c-1.24,1.52-2.48,3.15-2.48,5.06,0,3.81,4.86,5,11.54,5,5.53,0,13.07-.39,13.07-5.53,0-3.06-3.63-3.25-8.21-3.53l-13.93-.95Zm28.24-43.51A15.14,15.14,0,0,1,165,44c0,10.59-8.3,16.79-20.32,16.79a30.37,30.37,0,0,1-7.54-.86L134,65l9.35.57c16.51,1.05,26.24,1.53,26.24,14.22,0,11-9.64,17.17-26.24,17.17-17.27,0-23.85-4.39-23.85-11.93,0-4.3,1.91-6.58,5.25-9.73a6.36,6.36,0,0,1-4.2-6.29,8.55,8.55,0,0,1,2.77-5.82c1.72-1.81,3.62-3.63,5.91-5.72-4.67-2.29-8.21-7.25-8.21-14.31,0-11,7.25-18.51,21.85-18.51a32.77,32.77,0,0,1,8.78,1H170.3v8.11l-8.78.67Z"/>
<path fill="#f05133" d="M98.33,45.59,54.7,2a6.43,6.43,0,0,0-9.1,0L36.54,11,48,22.52a7.64,7.64,0,0,1,9.68,9.74L68.79,43.33a7.65,7.65,0,1,1-4.59,4.32L53.87,37.32V64.5a7.64,7.64,0,1,1-6.3-.22V36.85a7.53,7.53,0,0,1-2.51-1.67,7.65,7.65,0,0,1-1.65-8.37L32.09,15.47,2.18,45.39a6.44,6.44,0,0,0,0,9.1L45.8,98.12a6.44,6.44,0,0,0,9.1,0L98.33,54.7a6.44,6.44,0,0,0,0-9.1Zm0,0Z"/>
</svg>