<svg xmlns="http://www.w3.org/2000/svg" viewBox="0 0 258 100">
<polygon fill-rule="evenodd" clip-rule="evenodd" fill="#CB3837" points="0.4,0 257.6,0 257.6,85.7 129,85.7 129,100 71.9,100 71.9,85.7 0.4,85.7 0.4,0 	"/>
<path fill-rule="evenodd" clip-rule="evenodd" fill="#FFFFFF" d="M14.7,71.4h28.6V28.6h14.3v42.9h14.3V14.3H14.7V71.4L14.7,71.4z M86.1,14.3v71.4h28.6V71.4h28.6V14.3H86.1L86.1,14.3z M129,57.1h-14.3V28.6H129V57.1L129,57.1z M157.6,14.3v57.1h28.6V28.6h14.3v42.9h14.3V28.6H229v42.9h14.3V14.3H157.6L157.6,14.3z"/>
</svg>