<svg xmlns="http://www.w3.org/2000/svg" viewBox="0 0 297.3 100">
<path fill="#00D8FF" d="M274.5,67.7l-2.8-2.6c-0.1-0.1-0.2-0.2-0.3-0.2c-0.2,0.2-0.4,0.4-0.5,0.6c-0.7,0.9-1.5,1.6-2.5,2.2c-5.4,3.2-12.3,1.5-15.5-3.9c-0.2-0.3-0.4-0.7-0.5-1c-1.8-3.9-2-8.4-0.4-12.4c1-2.9,3.1-5.2,5.9-6.4c1.9-0.8,3.9-1.1,5.9-0.9c2.6,0.2,5.1,1.4,6.8,3.3c0.3,0.3,0.5,0.6,0.8,1c1.1-1,2.2-2,3.3-3c0.2-0.2,0.1-0.3,0-0.5c-1.8-2.4-4.4-4.2-7.3-5c-2.6-0.7-5.4-0.8-8.1-0.4c-4.1,0.6-7.8,2.9-10.3,6.2c-2.3,3.1-3.5,6.8-3.6,10.6c-0.1,2.6,0.3,5.2,1.2,7.6c1.4,4.3,4.7,7.8,8.8,9.6c3.4,1.5,7.2,1.8,10.8,1.1c3.3-0.6,6.3-2.5,8.4-5.1C275,68,275,68.1,274.5,67.7z"/>
<path fill="#00D8FF" d="M297.2,71.2c-0.4-1-0.8-2-1.2-3c0-0.1-0.1-0.3-0.2-0.4c-0.8,0.8-1.9,1.3-3.1,1.4c-1.5,0.2-2.9-0.6-3.4-2c-0.3-0.8-0.5-1.7-0.4-2.6c0-6.8,0-13.5,0-20.3c0-0.1,0-0.2,0-0.4s0.1-0.3,0.3-0.3h6.1c0.2,0,0.5,0,0.5-0.4c0-1.3,0-2.7,0-4c0-0.2-0.1-0.3-0.3-0.3h-6.1c-0.5,0-0.5,0-0.5-0.5c0-0.1,0-0.3,0-0.4c0-2.7,0-5.3,0-8c0-0.5,0-0.5-0.5-0.5H284c-0.5,0-0.5,0-0.5,0.5c0,0.1,0,0.2,0,0.4c0,2.6,0,5.2,0,7.8c0,0.6,0,0.6-0.6,0.6h-4.6c-0.5,0-0.5,0-0.5,0.4c0,1.2,0,2.5,0,3.8c0,0.4,0,0.5,0.5,0.5h4.4c0.1,0,0.3,0,0.4,0s0.4,0.1,0.4,0.4c0,0.3,0,0.3,0,0.5c0,6.8,0,13.7,0,20.5c0,0.5,0,1,0,1.5c0,1,0.2,1.9,0.5,2.8c0.6,2.1,2.3,3.8,4.5,4.3c1.4,0.4,2.9,0.4,4.4,0.2c1.5-0.2,2.9-0.7,4.1-1.6C297.4,71.8,297.4,71.8,297.2,71.2z"/>
<path fill="#00D8FF" d="M151.8,53.8c0.8-0.1,1.6-0.3,2.3-0.5c4-1.1,7.2-4.2,8.5-8.1c0.7-2.2,1-4.5,0.7-6.8c-0.2-2-0.8-3.9-1.8-5.6c-1.9-3.3-5.2-5.6-9-6.4c-1.5-0.3-3-0.5-4.5-0.4h-17.6c-0.9,0-0.8-0.1-0.8,0.8c0,14.4,0,28.8,0,43.2c0,0.9,0,1.8,0,2.6c0,0.5,0,0.5,0.5,0.5h4.6c0.8,0,0.7,0.1,0.7-0.8c0-5.7,0-11.5,0-17.2c0-0.2,0-0.3,0-0.5c0-0.2,0.1-0.3,0.3-0.3h0.3c2.8,0,5.6,0,8.3,0c0.3,0,0.7,0.1,0.8,0.4c1.2,2,2.5,4,3.8,5.9c2.5,4,5.1,7.9,7.6,11.9c0.1,0.3,0.5,0.5,0.8,0.5c2,0,3.9,0,5.9,0c0.1,0,0.3,0.1,0.5-0.1l-12.6-19C151.3,53.9,151.5,53.8,151.8,53.8z M147.5,49.3H136c-0.5,0-0.5,0-0.5-0.5c0-2.8,0-5.7,0-8.5c0-2.8,0-5.6,0-8.3c0-0.1,0-0.3,0-0.4c0-0.1,0.1-0.3,0.3-0.3h0.3c3.8,0,7.5,0,11.3,0c1.6,0,3.3,0.3,4.8,0.9c2.7,1.1,4.6,3.6,4.9,6.5c0.3,1.9,0.1,3.9-0.8,5.7c-1.1,2.3-3.2,4-5.8,4.6C149.6,49.2,148.5,49.3,147.5,49.3z"/>
<path fill="#00D8FF" d="M199.5,47.1c-1.6-3.5-4.5-6.3-8.1-7.8c-3-1.2-6.2-1.5-9.4-0.9c-3.5,0.6-6.6,2.4-9,5c-2.8,3-4.4,6.9-4.7,11c-0.2,2.7,0.1,5.5,0.9,8.1c1,3.1,2.9,5.9,5.4,7.9c2.5,1.9,5.5,3.1,8.6,3.5c3.2,0.4,6.5,0,9.6-1.1c2.2-0.8,4.3-2.1,6-3.7c0.3-0.3,0.3-0.3,0.1-0.7l-1.4-1.9c-0.3-0.4-0.6-0.8-0.9-1.2l-0.1,0.1l-0.1,0.1c-3.3,3.3-8,4.7-12.6,3.9c-3.3-0.5-6.2-2.4-7.9-5.3c-1.1-1.7-1.7-3.6-1.9-5.6c-0.1-0.8-0.1-0.8,0.6-0.8h26.4c0.4,0,0.4,0,0.4-0.4c0-0.8,0-1.6-0.1-2.4C201.3,52.2,200.7,49.5,199.5,47.1z M195.9,53.8c-0.1,0-0.3,0-0.4,0h-20.9c-0.7,0-0.7,0-0.6-0.6c0.5-4,2.2-7.3,5.8-9.3c1.8-1,3.8-1.4,5.8-1.3c1.3,0,2.5,0.3,3.7,0.7c3.1,1.2,5.4,3.7,6.4,6.8c0.4,1.1,0.6,2.2,0.6,3.4C196.3,53.8,196.2,53.8,195.9,53.8z"/>
<path fill="#00D8FF" d="M232,40.3c-1.8-1.1-3.8-1.8-5.9-2c-2.5-0.3-5-0.2-7.4,0.3c-3.3,0.8-6.3,2.5-8.7,4.9c-0.2,0.1-0.2,0.4-0.1,0.5c0,0,0,0,0.1,0.1c0.7,1,1.3,1.9,2,2.9c0.1,0.1,0.2,0.3,0.4,0.4c0.3-0.3,0.6-0.7,1-1.1c3.2-3.1,7.8-4.3,12.1-3.3c1.5,0.3,2.9,1,4,2.1c1.3,1.3,2,3.1,1.9,5c0,1.8,0,3.6,0,5.4c0,0.1,0.1,0.3-0.1,0.4c-0.2,0.1-0.2-0.2-0.4-0.3c-0.6-0.7-1.4-1.3-2.1-1.8c-3.9-2.4-8.6-3-13-1.7c-2.3,0.6-4.3,2-5.7,3.9c-1.1,1.5-1.8,3.3-2,5.2c-0.3,2.1,0,4.2,0.8,6.1c1.3,2.9,3.8,5.1,6.9,6c2.1,0.7,4.3,0.8,6.4,0.5c3.3-0.4,6.3-1.8,8.7-4.2c0.1-0.1,0.1-0.2,0.3-0.2c0.1,0.2,0.1,0.4,0,0.6c0,0.9,0,1.8,0,2.7c0,0.5,0,0.5,0.5,0.5h4.3c0.5,0,0.5,0,0.5-0.5c0,0,0-0.1,0-0.1c0-7.6,0-15.2,0-22.7c0-1-0.1-1.9-0.2-2.8C236,44.2,234.4,41.8,232,40.3z M231.4,62.7c0,0.9,0,1.8,0,2.6c0,0.4-0.1,0.9-0.4,1.2c-1.1,1.3-2.5,2.2-4.1,2.8c-2.4,1-4.9,1.2-7.4,0.6c-2.1-0.4-3.9-1.7-5-3.6c-2-3.5-0.7-7.8,2.7-9.8c0.3-0.2,0.5-0.3,0.8-0.4c1.6-0.6,3.3-0.9,4.9-0.8c1.9,0.1,3.8,0.6,5.4,1.5c1,0.6,1.9,1.3,2.6,2.1c0.3,0.3,0.4,0.6,0.4,1C231.4,60.9,231.4,61.8,231.4,62.7z"/>
<path fill="#00D8FF" d="M56,59.9c0,0,0.1,0,0.1,0c5.5,0,10-4.5,10-10c0-5.5-4.5-10-10-10c-5.5,0-9.9,4.4-10,9.9C46,55.3,50.5,59.8,56,59.9z"/>
<path fill="#00D8FF" d="M107.4,40.3c-2.4-2-5-3.7-7.8-5.1c-3.2-1.6-6.5-2.8-9.9-3.8c-0.5-0.2-0.5-0.2-0.4-0.7c0.8-3.3,1.3-6.6,1.5-10c0.2-3.1,0.1-6.2-0.4-9.3c-0.3-2-0.9-4-1.9-5.8c-1.4-3.1-4.3-5.2-7.7-5.6V0h-3.1c0,0,0,0.1,0,0.1c-0.8,0.1-1.6,0.3-2.4,0.5c-3,0.8-5.9,2.1-8.5,3.8c-3.6,2.2-6.9,4.8-9.9,7.8c-0.4,0.4-0.3,0.4-0.7,0c-2.5-2.4-5.2-4.5-8-6.4c-2.7-1.8-5.6-3.3-8.6-4.4c-2.5-0.9-5.1-1.3-7.7-1c-1.8,0.2-3.5,1-4.9,2.1c-1.4,1.2-2.5,2.8-3.2,4.5c-0.9,2.3-1.5,4.8-1.6,7.3c-0.2,3.2-0.1,6.5,0.4,9.7c0.3,2.2,0.7,4.4,1.3,6.5c0.2,0.7,0.2,0.7-0.6,1c-2.2,0.6-4.3,1.4-6.5,2.2c-3.5,1.4-6.9,3.2-9.9,5.5c-2,1.5-3.6,3.3-4.9,5.3c-2.1,3.2-2.1,7.2-0.1,10.5c1.1,1.9,2.5,3.6,4.2,5c3,2.5,6.4,4.6,10,6.2c2.4,1.1,4.9,2,7.5,2.7c0.5,0.1,0.5,0.1,0.4,0.6v0.1c-0.9,3.5-1.4,7.2-1.7,10.8c-0.2,2.8,0,5.6,0.4,8.3c0.3,2,1,3.9,1.9,5.7c1,1.9,2.5,3.5,4.4,4.4c1.2,0.5,2.4,0.9,3.7,1c0,0,0,0.1,0,0.1h2.4c0,0,0-0.1,0-0.1c1.4-0.1,2.7-0.4,4-0.8c3.3-1,6.5-2.6,9.3-4.5c2.9-1.9,5.6-4.1,8.2-6.6c0.3-0.3,0.3-0.3,0.6,0l0.2,0.2c3,2.9,6.4,5.5,10,7.7c3.2,2.1,6.9,3.4,10.7,4c0,0,0,0.1,0,0.1h2.7c0,0,0-0.1,0-0.1l0.8-0.1c2.1-0.4,4.1-1.5,5.5-3.1c1.3-1.5,2.3-3.3,2.9-5.2c0.9-2.8,1.3-5.8,1.3-8.7c0-1.6,0-3.2-0.2-4.8c-0.2-2.2-0.5-4.3-0.9-6.4c-0.2-0.8-0.3-1.6-0.5-2.4c-0.1-0.2,0-0.4,0.2-0.4c0.1,0,0.2-0.1,0.3-0.1c2.6-0.8,5.1-1.7,7.6-2.9c3.4-1.5,6.6-3.4,9.4-5.8c1.7-1.4,3.2-3.2,4.3-5.1c1.8-3.1,1.8-6.9,0-9.9C110.3,43.2,108.9,41.6,107.4,40.3z M60.3,15.5c3.4-3.4,7.2-6.2,11.5-8.5c1.7-0.9,3.6-1.6,5.5-2c1.2-0.3,2.4-0.3,3.5-0.1c1.1,0.2,2.1,0.8,2.7,1.7c0.8,1,1.4,2.2,1.7,3.4c0.5,1.6,0.8,3.2,0.9,4.9c0.1,0.9,0.1,1.7,0.1,2.6c-0.1,3.8-0.5,7.5-1.4,11.2c-0.1,0.3-0.1,0.5-0.2,0.8S84.5,30,84,30l-3-0.6c-2.7-0.5-5.5-1-8.2-1.3c-1-0.1-2-0.3-3.1-0.3c-0.3,0-0.5-0.2-0.6-0.4c-1.4-2.1-3-4.1-4.6-6c-1.4-1.7-2.8-3.4-4.3-5.1C59.9,15.8,59.9,15.8,60.3,15.5z M30.2,35.4L30,34.9c-0.1-0.2,0-0.3,0.2-0.3l1.3-0.3c2.6-0.5,5.1-0.9,7.7-1.3c0.2,0,0.4,0,0.8-0.1c-2.4,3.8-4.5,7.5-6.5,11.3c-0.2-0.1-0.2-0.3-0.2-0.4l0,0C32.1,41.1,31.1,38.3,30.2,35.4z M33.5,55.7c2.1,4,4.3,7.8,6.7,11.6c-3.5-0.4-6.9-0.9-10.3-1.7C30.9,62.2,32.1,59,33.5,55.7z M36.3,50.5L36.3,50.5c-0.1-0.3-0.1-0.6,0-0.9c2.8-5.8,6.1-11.5,9.7-16.9c0.1-0.3,0.4-0.4,0.7-0.4c4-0.3,8-0.4,12.1-0.3c2.6,0,5.1,0.2,7.7,0.3c0.3,0,0.5,0.2,0.6,0.5c1.4,2.1,2.8,4.3,4.1,6.4c2,3.3,3.9,6.8,5.6,10.3c0.2,0.3,0.2,0.7,0,1c-2.9,5.8-6.1,11.4-9.7,16.8c-0.2,0.3-0.5,0.5-0.8,0.5c-1.7,0.1-3.3,0.2-5,0.2C59.6,68,58,68,56.3,68c-2.3,0-4.6-0.1-6.8-0.1c-0.8,0-1.7-0.1-2.5-0.1c-0.4,0-0.7-0.2-0.9-0.5C42.4,61.9,39.1,56.3,36.3,50.5z M79.5,55.6c0.5,0.6,3.3,7.9,3.8,9.8c-3.4,0.8-6.9,1.4-10.4,1.8C75.3,63.3,77.5,59.5,79.5,55.6z M79.5,44.2c-2-3.8-4.2-7.5-6.5-11.2c0.2-0.1,0.3-0.1,0.5,0c3.1,0.4,6.2,0.9,9.2,1.6c0.4,0.1,0.5,0.1,0.3,0.5c-1,3-2.1,6-3.4,8.9C79.7,44.1,79.6,44.2,79.5,44.2z M56.6,19.3L56.6,19.3c2.4,2.5,4.6,5.2,6.6,8c-4.5-0.2-8.8-0.2-13.3,0C52,24.5,54.2,21.8,56.6,19.3z M26.9,15.2c0.1-2.2,0.5-4.4,1.3-6.4C28.5,8,29,7.2,29.5,6.6c0.7-0.9,1.8-1.4,2.9-1.6c0.4,0,0.8-0.1,1-0.1C35.4,5,37.2,5.4,39,6.1c3,1.2,5.8,2.8,8.4,4.8c1.8,1.4,3.6,2.8,5.3,4.4c0.1,0.1,0.1,0.1,0.2,0.2c0.2,0.2,0.3,0.3,0,0.6c-0.5,0.5-0.9,1-1.4,1.5c-2.7,3-5.2,6.2-7.5,9.5c-0.2,0.4-0.6,0.6-1.1,0.6c-4.6,0.4-9.2,1.1-13.8,2.1c-0.5,0.1-0.5,0.1-0.6-0.4c-0.6-2.6-1.1-5.2-1.4-7.9C26.9,19.5,26.8,17.4,26.9,15.2z M25.4,63.9c-0.1,0.5-0.2,0.5-0.6,0.4c-1.2-0.4-2.4-0.7-3.6-1.2c-3.4-1.2-6.7-2.9-9.8-4.9c-1.7-1.1-3.2-2.5-4.5-4.1c-0.6-0.7-1-1.5-1.4-2.4C5,50.5,5,49.2,5.5,48c0.5-1.2,1.3-2.3,2.2-3.2c1.6-1.6,3.3-2.9,5.3-4c3.5-2,7.2-3.5,11-4.6l1-0.3c0.2,0,0.2,0.2,0.3,0.3c0.3,0.9,0.6,1.8,0.9,2.7c1.2,3.5,2.6,7,4.2,10.4c0.2,0.4,0.2,0.9,0,1.3C28.4,54.9,26.7,59.4,25.4,63.9z M53.1,84.6c-3.5,3.5-7.6,6.4-12,8.6c-1.7,0.8-3.5,1.4-5.3,1.8c-0.7,0.1-1.3,0.2-2,0.2c-0.5,0-1.1,0-1.6-0.1c-1.2-0.2-2.3-1-3-2c-0.9-1.3-1.5-2.8-1.8-4.3c-0.5-2.5-0.7-5-0.5-7.5c0.2-3.5,0.7-7,1.6-10.4c0.1-0.4,0.1-0.5,0.6-0.4c2.8,0.6,5.6,1.1,8.4,1.4c1.9,0.2,3.8,0.4,5.7,0.6c0.3,0,0.6,0.2,0.8,0.4c2.2,3.2,4.6,6.2,7.2,9.1c0.6,0.7,1.3,1.4,1.9,2.1C53.3,84.3,53.3,84.3,53.1,84.6z M56.7,80.8L56.7,80.8c-2.4-2.6-4.6-5.3-6.7-8c4.5,0.1,8.8,0.1,13.3,0C61.3,75.6,59,78.3,56.7,80.8z M85.3,89.8L85.3,89.8c-0.4,1.3-0.9,2.4-1.7,3.5c-0.9,1.1-2.2,1.8-3.6,1.9c-1.8,0.1-3.6-0.2-5.2-0.9c-2.7-1.1-5.3-2.5-7.7-4.2c-2.3-1.6-4.4-3.4-6.5-5.3c-0.4-0.4-0.5-0.3-0.1-0.8c3.2-3.5,6.1-7.3,8.8-11.2c0.2-0.3,0.5-0.5,0.8-0.5c3-0.3,5.9-0.6,8.9-1.1c1.8-0.3,3.6-0.7,5.4-1.1c0.3-0.1,0.4,0,0.5,0.3c0.4,1.9,0.8,3.9,1.1,5.8c0.2,2,0.4,3.9,0.4,5.9C86.3,84.7,86,87.3,85.3,89.8z M107.3,52c-0.6,1.3-1.5,2.4-2.5,3.4c-1.9,1.8-4,3.2-6.2,4.4c-3.2,1.7-6.6,3.1-10.1,4.2c-0.4,0.1-0.4,0.1-0.6-0.3c-1.5-4.6-3.3-9-5.4-13.4c-0.1-0.3-0.1-0.6,0-0.9c1.6-3.5,3.1-7,4.3-10.7c0.3-0.8,0.5-1.6,0.8-2.4c0.2-0.5,0.2-0.5,0.6-0.3c2.8,0.8,5.5,1.8,8.1,3c2.5,1.1,4.8,2.5,6.9,4.1c1.3,0.9,2.4,2.1,3.3,3.3c0.6,0.8,1,1.8,1.2,2.8c0,0.2,0,0.4,0.1,0.5C107.8,50.6,107.7,51.3,107.3,52z"/>
</svg>