<svg xmlns="http://www.w3.org/2000/svg" viewBox="0 0 223 100">
<path fill-rule="evenodd" clip-rule="evenodd" fill="#2C8EBB" d="M137.8,52.6c-1.5,3.9-3.6,6.9-5.8,9.4V34.9c0-1.9-1.6-3.4-4.2-3.4c-1.1,0-2,0.5-2,1.3c0,0.5,0.3,1,0.3,2.5v12.4c-0.9,5.4-3.2,10.4-6.3,10.4c-2.2,0-3.6-2.2-3.6-6.4c0-6.5,0.8-9.9,2.2-15.6c0.3-1.2,2.5-4.2-1.2-4.2c-4.1,0-3.6,1.5-4.1,2.9c0,0-2.6,9.2-2.6,17.4c0,6.7,2.8,11.1,8,11.1c3.3,0,5.7-2.2,7.6-5.3l0,9.8c-5.1,4.5-9.6,8.4-9.6,16.2c0,4.9,3.1,8.9,7.4,8.9c3.9,0,8-2.9,8-11V68.5c2.7-2.3,5.5-5.1,7.9-9.1c1.5,2.3,3.9,3.8,7.1,3.8c2.9,0,5.1-1.4,6.6-3.2c1.2,1.9,3.2,3.2,5.9,3.2c6.4,0,9.5-6.4,10.9-11.4c0-0.1,0.1-0.2,0.1-0.3c1.4-4.5,1.9-11.2,1.9-14.2l6.7,0c-2.5,6.6-3.9,12.1-3.9,17.1c0,6.8,4.3,8.8,8,8.8l0,0c2.9,0,5.2-1.4,6.9-3.3c0,2.8,2.2,3.3,3.7,3.3c2.2,0,2.2-1.9,2.2-3.3V48.6c0.5-6.1,5.3-12.7,7.6-12.7c1.5,0,1.6,2,1.6,4.4v15.7c0,3.9,2.4,7.3,6.5,7.3c6.6,0,9.9-6.9,11.2-12c0.1-0.3,0.1-0.5,0.1-0.5c0-1.5-1.5-3.2-2.7-3.2c-0.8,0-1.5,0.7-1.9,2.3c-0.7,3.4-2.3,8.3-5.4,8.3c-2,0-2-2.9-2-3.6v-16c0-3.6-1.2-7.8-6.4-7.8c-3.8,0-6.6,3.3-8.6,7.6v-3.5c0-1.9-1.6-3.4-4.2-3.4c-1.1,0-2,0.5-2,1.3c0,0.5,0.3,1,0.3,2.5v13.4c-0.1,0.3-0.2,0.6-0.3,1c-0.7,3.4-2,8.3-5.6,8.3c-2.1,0-3.1-2-3.1-4.2c0-7.7,3.5-16.8,3.5-17.8c0.3-1.8-2.8-4.3-3.7-4.3h-4c-0.8,0-1.5,0-4.1-0.3c-0.8-3.2-3-4.1-4.9-4.1c-2,0-3.9,1.4-3.9,3.6c0,2.2,1.4,3.9,3.3,4.9c-0.1,3.9-0.4,10.3-1.2,13.4c0,0.1,0,0.2-0.1,0.3l0,0.1c-0.7,3.4-2.1,8.3-5.2,8.3h0c-1.9,0-2.6-1.9-2.6-3.6V41.8c0-1.9-1.6-3.4-4.2-3.4c-1.1,0-2,0.5-2,1.3c0,0.5,0.3,1,0.3,2.5v11.9c-0.9,2.2-2.2,4-4.3,4c-2.7,0-4.4-2.3-4.4-6.3c0-11.1,6.9-16.1,12.7-16.1c0.8,0,1.5,0.2,2.2,0.2c0.8,0,1-0.5,1-1.8c0-2-1.5-3.2-3.6-3.2c-9.4,0-18.4,7.9-18.4,20.8C137.8,51.9,137.8,52.3,137.8,52.6L137.8,52.6z M50,0c27.6,0,50,22.4,50,50c0,27.6-22.4,50-50,50C22.4,100,0,77.6,0,50C0,22.4,22.4,0,50,0L50,0z M123.9,88c-1.2,0-2-1.9-2-4.2c0-4.6,1.7-7.6,4.2-10.1v8.3C126.1,83.4,126.4,88,123.9,88L123.9,88z"/>
<path fill-rule="evenodd" clip-rule="evenodd" fill="#FFFFFF" d="M84,65.2c-0.3-2.7-2.7-4.6-5.6-4.6c-4.4,0.1-8.2,2.4-10.6,3.9c-1,0.6-1.8,1-2.5,1.4c0.2-2.2,0-5.2-1.1-8.4c-1.4-3.9-3.3-6.2-4.7-7.6c1.6-2.3,3.7-5.6,4.7-10.7c0.9-4.4,0.6-11.2-1.4-15c-0.4-0.8-1.1-1.3-1.9-1.6c-0.3-0.1-1-0.3-2.3,0.1c-1.9-4-2.6-4.5-3.1-4.8c-1.1-0.7-2.4-0.8-3.6-0.4c-1.6,0.6-3,2.1-4.3,4.9c-0.2,0.4-0.4,0.8-0.5,1.2c-2.5,0.2-6.3,1.1-9.6,4.6c-0.4,0.4-1.2,0.8-2,1.1h0c-1.7,0.6-2.5,2-3.4,4.5c-1.3,3.5,0,7,1.4,9.2c-1.8,1.6-4.2,4.2-5.5,7.2c-1.6,3.7-1.8,7.4-1.7,9.4c-1.4,1.4-3.4,4.1-3.7,7.1c-0.3,4.2,1.2,7.1,1.9,8.1c0.2,0.3,0.4,0.6,0.6,0.8c-0.1,0.5-0.1,1.1,0,1.7c0.3,1.4,1.1,2.5,2.4,3.1c2.5,1.4,6.1,1.9,8.8,0.6c1,1,2.8,2,6,2l0.2,0c0.8,0,11.4-0.6,14.4-1.3c1.4-0.3,2.3-0.9,2.9-1.4c2-0.6,7.4-2.5,12.5-5.8c3.6-2.4,4.9-2.9,7.6-3.5C82.7,70.2,84.4,67.8,84,65.2L84,65.2L84,65.2z M79.5,68c-3.1,0.7-4.7,1.4-8.5,3.9c-6,3.9-12.5,5.7-12.5,5.7s-0.5,0.8-2.1,1.2c-2.7,0.7-12.9,1.2-13.8,1.2c-2.5,0-4-0.6-4.4-1.7c-1.3-3.1,1.9-4.4,1.9-4.4s-0.7-0.4-1.1-0.8c-0.4-0.4-0.8-1.1-0.9-0.8c-0.5,1.2-0.7,4.1-2,5.3c-1.8,1.8-5.1,1.2-7.1,0.2c-2.2-1.2,0.2-3.9,0.2-3.9s-1.2,0.7-2.1-0.7c-0.8-1.3-1.6-3.6-1.4-6.3c0.2-3.1,3.7-6.2,3.7-6.2s-0.6-4.7,1.4-9.4c1.8-4.3,6.8-7.8,6.8-7.8s-4.2-4.6-2.6-8.7c1-2.7,1.4-2.7,1.7-2.8c1.2-0.4,2.3-0.9,3.1-1.8c4.2-4.5,9.4-3.6,9.4-3.6s2.5-7.6,4.8-6.1c0.7,0.5,3.3,6.2,3.3,6.2s2.7-1.6,3.1-1c1.7,3.2,1.9,9.4,1.1,13.1c-1.2,6.2-4.3,9.5-5.6,11.6c-0.3,0.5,3.3,2,5.6,8.3c2.1,5.8,0.2,10.6,0.6,11.2c0.1,0.1,0.1,0.1,0.1,0.1s2.4,0.2,7.3-2.8c2.6-1.6,5.7-3.4,9.1-3.4C81.8,63.4,82,67.4,79.5,68L79.5,68L79.5,68z"/>
</svg>