<svg version="1.1" xmlns="http://www.w3.org/2000/svg" xmlns:xlink="http://www.w3.org/1999/xlink" x="0px" y="0px" viewBox="0 0 1836 216" style="enable-background:new 0 0 1836 216;" xml:space="preserve">
	<style type="text/css">
		.st0{fill-rule:evenodd;clip-rule:evenodd;fill:#2D59B5;}
		.st1{fill-rule:evenodd;clip-rule:evenodd;fill:#F43A14;}
		.st2{fill-rule:evenodd;clip-rule:evenodd;fill:#F9C50F;}
	</style>
	<rect x="918" y="0" class="st0" width="54" height="54"/>
	<path class="st0" d="M486,27h54l0,0c0,14.9-12.1,27-27,27h0C498.2,54,486,41.9,486,27L486,27z"/>
	<path class="st1" d="M999,0L999,0c14.9,0,27,12.2,27,27l0,0c0,14.9-12.2,27-27,27l0,0c-14.9,0-27-12.2-27-27l0,0 C972,12.1,984.2,0,999,0z"/>
	<path class="st2" d="M675,54L675,54c-14.9,0-27-12.2-27-27l0,0c0-14.9,12.2-27,27-27l0,0c14.9,0,27,12.2,27,27l0,0 C702,41.8,689.9,54,675,54z"/>
	<path class="st0" d="M729,0L729,0c14.9,0,27,12.2,27,27l0,0c0,14.9-12.2,27-27,27l0,0c-14.9,0-27-12.2-27-27l0,0 C702,12.1,714.2,0,729,0z"/>
	<polygon class="st0" points="864,0 918,0 918,0 864,54 864,54"/>
	<path class="st2" d="M594,27h54l0,0c0,14.9-12.1,27-27,27h0C606.2,54,594,41.8,594,27L594,27z"/>
	<path class="st0" d="M567,0L567,0c14.9,0,27,12.2,27,27l0,0c0,14.9-12.1,27-27,27l0,0c-14.9,0-27-12.2-27-27l0,0 C540,12.1,552.2,0,567,0z"/>
	<path class="st0" d="M432,27h54l0,0c0,14.9-12.1,27-27,27h0C444.2,54,432,41.9,432,27L432,27z"/>
	<rect x="1026" y="0" class="st0" width="54" height="54"/>
	<path class="st2" d="M1107,54L1107,54c-14.9,0-27-12.2-27-27l0,0c0-14.9,12.2-27,27-27l0,0c14.8,0,27,12.2,27,27l0,0 C1134,41.8,1121.9,54,1107,54z"/>
	<polygon class="st2" points="1188,0 1134,0 1134,0 1188,54 1188,54"/>
	<polygon class="st1" points="1188,54 1242,54 1242,54 1188,0 1188,0"/>
	<polygon class="st1" points="1296,0 1350,0 1350,0 1296,54 1296,54"/>
	<path class="st1" d="M1377,54L1377,54c-14.9,0-27-12.2-27-27l0,0c0-14.9,12.2-27,27-27l0,0c14.8,0,27,12.2,27,27l0,0 C1404,41.8,1391.9,54,1377,54z"/>
	<rect x="1404" y="0" class="st2" width="54" height="54"/>
	<path class="st1" d="M1485,54L1485,54c-14.8,0-27-12.2-27-27l0,0c0-14.9,12.2-27,27-27l0,0c14.8,0,27,12.2,27,27l0,0 C1512,41.8,1499.9,54,1485,54z"/>
	<path class="st1" d="M1539,54L1539,54c-14.9,0-27-12.2-27-27l0,0c0-14.9,12.2-27,27-27l0,0c14.8,0,27,12.2,27,27l0,0 C1566,41.8,1553.9,54,1539,54z"/>
	<polygon class="st2" points="1620,0 1566,0 1566,0 1620,54 1620,54"/>
	<rect x="1620" y="0" class="st0" width="54" height="54"/>
	<path class="st1" d="M1701,0v54l0,0c-14.8,0-27-12.1-27-27v0C1674,12.1,1686.2,0,1701,0L1701,0z"/>
	<path class="st2" d="M1755,54L1755,54c-14.8,0-27-12.2-27-27l0,0c0-14.9,12.2-27,27-27l0,0c14.8,0,27,12.2,27,27l0,0 C1782,41.8,1769.9,54,1755,54z"/>
	<path class="st0" d="M1809,54L1809,54c-14.9,0-27-12.2-27-27l0,0c0-14.9,12.2-27,27-27l0,0c14.8,0,27,12.2,27,27l0,0 C1836,41.8,1823.9,54,1809,54z"/>
	<polygon class="st2" points="378,0 432,0 432,0 378,54 378,54"/>
	<polygon class="st1" points="324,54 378,54 378,54 324,0 324,0"/>
	<polygon class="st1" points="270,54 324,54 324,54 270,0 270,0"/>
	<path class="st0" d="M216,27h54l0,0c0,14.9-12.1,27-27,27h0C228.2,54,216,41.9,216,27L216,27z"/>
	<path class="st1" d="M189,0L189,0c14.9,0,27,12.2,27,27l0,0c0,14.9-12.2,27-27,27l0,0c-14.9,0-27-12.2-27-27l0,0 C162,12.1,174.2,0,189,0z"/>
	<rect x="108" y="0" class="st0" width="54" height="54"/>
	<rect x="54" y="0" class="st0" width="54" height="54"/>
	<polygon class="st1" points="0,54 54,54 54,54 0,0 0,0"/>
	<path class="st2" d="M891,108L891,108c-14.9,0-27-12.2-27-27l0,0c0-14.9,12.2-27,27-27l0,0c14.8,0,27,12.2,27,27l0,0 C918,95.8,905.9,108,891,108z"/>
	<path class="st1" d="M783,54L783,54c14.9,0,27,12.2,27,27l0,0c0,14.9-12.2,27-27,27l0,0c-14.9,0-27-12.2-27-27l0,0 C756,66.1,768.2,54,783,54z"/>
	<path class="st0" d="M729,54v54l0,0c-14.9,0-27-12.1-27-27v0C702,66.1,714.2,54,729,54L729,54z"/>
	<path class="st1" d="M675,54v54l0,0c-14.9,0-27-12.1-27-27v0C648,66.1,660.2,54,675,54L675,54z"/>
	<rect x="594" y="54" class="st1" width="54" height="54"/>
	<path class="st2" d="M567,54v54l0,0c-14.9,0-27-12.1-27-27v0C540,66.1,552.2,54,567,54L567,54z"/>
	<path class="st1" d="M486,81h54l0,0c0-14.9-12.1-27-27-27h0C498.2,54,486,66.1,486,81L486,81z"/>
	<rect x="432" y="54" class="st2" width="54" height="54"/>
	<path class="st2" d="M378,81h54l0,0c0-14.9-12.1-27-27-27h0C390.2,54,378,66.1,378,81L378,81z"/>
	<polygon class="st1" points="324,108 378,108 378,108 324,54 324,54"/>
	<polygon class="st1" points="270,54 324,54 324,54 270,108 270,108"/>
	<rect x="216" y="54" class="st0" width="54" height="54"/>
	<polygon class="st2" points="162,108 216,108 216,108 162,54 162,54"/>
	<rect x="54" y="54" class="st2" width="54" height="54"/>
	<path class="st0" d="M0,81h54l0,0c0,14.9-12.1,27-27,27h0C12.2,108,0,95.9,0,81L0,81z"/>
	<path class="st1" d="M945,54L945,54c14.9,0,27,12.2,27,27l0,0c0,14.9-12.1,27-27,27l0,0c-14.9,0-27-12.2-27-27l0,0 C918,66.1,930.2,54,945,54z"/>
	<path class="st2" d="M1053,54L1053,54c14.8,0,27,12.2,27,27l0,0c0,14.9-12.2,27-27,27l0,0c-14.8,0-27-12.2-27-27l0,0 C1026,66.1,1038.2,54,1053,54z"/>
	<polygon class="st1" points="1080,108 1134,108 1134,108 1080,54 1080,54"/>
	<rect x="1188" y="54" class="st0" width="54" height="54"/>
	<rect x="1134" y="54" class="st0" width="54" height="54"/>
	<path class="st1" d="M1269,108L1269,108c-14.9,0-27-12.2-27-27l0,0c0-14.9,12.2-27,27-27l0,0c14.8,0,27,12.2,27,27l0,0 C1296,95.8,1283.9,108,1269,108z"/>
	<path class="st0" d="M1296,81h54l0,0c0,14.9-12.1,27-27,27h0C1308.2,108,1296,95.8,1296,81L1296,81z"/>
	<polygon class="st2" points="1350,108 1404,108 1404,108 1350,54 1350,54"/>
	<polygon class="st1" points="1404,108 1458,108 1458,108 1404,54 1404,54"/>
	<rect x="1458" y="54" class="st2" width="54" height="54"/>
	<path class="st2" d="M1512,81h54l0,0c0-14.9-12.1-27-27-27h0C1524.2,54,1512,66.1,1512,81L1512,81z"/>
	<polygon class="st1" points="1566,108 1620,108 1620,108 1566,54 1566,54"/>
	<path class="st0" d="M1674,81h54l0,0c0-14.9-12.1-27-27-27h0C1686.2,54,1674,66.1,1674,81L1674,81z"/>
	<path class="st0" d="M1620,81h54l0,0c0-14.9-12.1-27-27-27h0C1632.2,54,1620,66.1,1620,81L1620,81z"/>
	<polygon class="st0" points="1728,54 1782,54 1782,54 1728,108 1728,108"/>
	<polygon class="st0" points="1836,54 1782,54 1782,54 1836,108 1836,108"/>
	<polygon class="st0" points="486,108 432,108 432,108 486,162 486,162"/>
	<path class="st2" d="M216,135h-54l0,0c0-14.9,12.1-27,27-27h0C203.9,108,216,120.1,216,135L216,135z"/>
	<polygon class="st1" points="108,108 162,108 162,108 108,162 108,162"/>
	<path class="st0" d="M81,108L81,108c-14.9,0-27,12.2-27,27l0,0c0,14.9,12.2,27,27,27l0,0c14.9,0,27-12.2,27-27l0,0 C108,120.1,95.9,108,81,108z"/>
	<path class="st1" d="M378,135h54l0,0c0-14.9-12.1-27-27-27h0C390.2,108,378,120.1,378,135L378,135z"/>
	<rect x="324" y="108" class="st0" width="54" height="54"/>
	<path class="st2" d="M297,162L297,162c-14.9,0-27-12.2-27-27l0,0c0-14.9,12.1-27,27-27l0,0c14.9,0,27,12.2,27,27l0,0 C324,149.8,311.9,162,297,162z"/>
	<path class="st0" d="M54,135H0l0,0c0-14.9,12.1-27,27-27h0C41.9,108,54,120.1,54,135L54,135z"/>
	<path class="st1" d="M216,135h54l0,0c0,14.9-12.1,27-27,27h0C228.2,162,216,149.8,216,135L216,135z"/>
	<path class="st2" d="M243,162L243,162c14.9,0,27,12.2,27,27l0,0c0,14.9-12.2,27-27,27l0,0c-14.9,0-27-12.2-27-27l0,0 C216,174.1,228.2,162,243,162z"/>
	<polygon class="st2" points="162,216 216,216 216,216 162,162 162,162"/>
	<polygon class="st1" points="162,162 108,162 108,162 162,216 162,216"/>
	<polygon class="st1" points="54,216 0,216 0,216 54,162 54,162"/>
	<polygon class="st0" points="1350,108 1404,108 1404,108 1350,162 1350,162"/>
	<path class="st2" d="M1620,189h54l0,0c0-14.9-12.1-27-27-27h0C1632.2,162,1620,174.2,1620,189L1620,189z"/>
	<polygon class="st1" points="1728,162 1674,162 1674,162 1728,216 1728,216"/>
	<path class="st0" d="M1755,162L1755,162c14.8,0,27,12.2,27,27l0,0c0,14.9-12.2,27-27,27l0,0c-14.9,0-27-12.2-27-27l0,0 C1728,174.2,1740.2,162,1755,162z"/>
	<path class="st1" d="M1458,135h-54l0,0c0-14.9,12.1-27,27-27h0C1445.9,108,1458,120.1,1458,135L1458,135z"/>
	<rect x="1458" y="108" class="st0" width="54" height="54"/>
	<path class="st0" d="M1782,189h54l0,0c0-14.9-12.1-27-27-27h0C1794.2,162,1782,174.2,1782,189L1782,189z"/>
	<path class="st1" d="M1620,189h-54l0,0c0,14.9,12.1,27,27,27h0C1607.9,216,1620,203.9,1620,189L1620,189z"/>
	<path class="st2" d="M1593,162L1593,162c-14.8,0-27-12.2-27-27l0,0c0-14.9,12.2-27,27-27l0,0c14.8,0,27,12.2,27,27l0,0 C1620,149.8,1607.9,162,1593,162z"/>
	<polygon class="st2" points="1674,108 1620,108 1620,108 1674,162 1674,162"/>
	<polygon class="st1" points="1674,162 1728,162 1728,162 1674,108 1674,108"/>
	<polygon class="st1" points="1782,108 1836,108 1836,108 1782,162 1782,162"/>
	<path class="st2" d="M837,54L837,54c-14.8,0-27-12.2-27-27l0,0c0-14.9,12.2-27,27-27l0,0c14.9,0,27,12.2,27,27l0,0 C864,41.8,851.9,54,837,54z"/>
</svg>
